<svg width="647" height="629" viewBox="0 0 647 629" fill="none" xmlns="http://www.w3.org/2000/svg">
<path d="M529.414 129.574C497.22 58.2077 419.942 31.3368 358.969 79.254C335.159 97.9479 320.304 127.7 291.15 139.638C263.795 150.834 229.142 147.538 199.561 153.602C136.569 166.433 51.76 215.118 58.23 290.133C61.0639 322.992 83.8642 359.486 95.1349 390.232C108.075 425.607 115.839 469.863 150.091 491.01C208.813 527.316 279.646 497.64 332.545 468.366C361.013 452.628 376.683 442.954 407.338 448.351C435.716 453.383 461.272 470.995 489.003 450.1C509.823 434.413 511.544 402.623 529.026 383.954C548.721 362.92 568.687 361.398 578.923 329.785C591.332 291.428 573.048 267.463 560.69 233.195C548.332 198.928 544.58 163.15 529.414 129.574Z" fill="#fcd340"/>
<g opacity="0.7">
<path d="M529.414 129.574C497.22 58.2077 419.942 31.3368 358.969 79.254C335.159 97.9479 320.304 127.7 291.15 139.638C263.795 150.834 229.142 147.538 199.561 153.602C136.569 166.433 51.76 215.118 58.23 290.133C61.0639 322.992 83.8642 359.486 95.1349 390.232C108.075 425.607 115.839 469.863 150.091 491.01C208.813 527.316 279.646 497.64 332.545 468.366C361.013 452.628 376.683 442.954 407.338 448.351C435.716 453.383 461.272 470.995 489.003 450.1C509.823 434.413 511.544 402.623 529.026 383.954C548.721 362.92 568.687 361.398 578.923 329.785C591.332 291.428 573.048 267.463 560.69 233.195C548.332 198.928 544.58 163.15 529.414 129.574Z" fill="white"/>
</g>
<path d="M284.434 550.601C394.906 550.601 484.461 545.178 484.461 538.487C484.461 531.796 394.906 526.372 284.434 526.372C173.963 526.372 84.4077 531.796 84.4077 538.487C84.4077 545.178 173.963 550.601 284.434 550.601Z" fill="#fcd340"/>
<path opacity="0.8" d="M284.434 550.601C394.906 550.601 484.461 545.178 484.461 538.487C484.461 531.796 394.906 526.372 284.434 526.372C173.963 526.372 84.4077 531.796 84.4077 538.487C84.4077 545.178 173.963 550.601 284.434 550.601Z" fill="white"/>
<path d="M434.745 77.8199H233.619C219.733 77.8199 208.476 88.7634 208.476 102.263V515.063C208.476 528.562 219.733 539.506 233.619 539.506H434.745C448.631 539.506 459.888 528.562 459.888 515.063V102.263C459.888 88.7634 448.631 77.8199 434.745 77.8199Z" fill="#263238"/>
<path d="M448.707 128.517H219.644V488.809H448.707V128.517Z" fill="white" stroke="#263238" stroke-width="1.33739" stroke-miterlimit="10"/>
<path d="M369.29 274.41C388.68 255.559 388.68 224.997 369.29 206.146C349.9 187.296 318.463 187.296 299.073 206.146C279.683 224.997 279.683 255.559 299.073 274.41C318.463 293.26 349.9 293.26 369.29 274.41Z" fill="#fcd340"/>
<path d="M399.367 466.152H269.01C268.716 466.154 268.425 466.099 268.154 465.991C267.882 465.883 267.636 465.724 267.427 465.523C267.219 465.322 267.054 465.082 266.942 464.819C266.829 464.556 266.771 464.273 266.771 463.988C266.769 463.702 266.826 463.418 266.938 463.153C267.05 462.889 267.215 462.648 267.423 462.446C267.631 462.243 267.879 462.083 268.151 461.974C268.423 461.865 268.715 461.81 269.01 461.812H399.367C399.661 461.812 399.951 461.868 400.222 461.978C400.493 462.087 400.739 462.248 400.946 462.45C401.152 462.652 401.316 462.892 401.427 463.156C401.538 463.42 401.595 463.703 401.593 463.988C401.593 464.562 401.358 465.112 400.941 465.518C400.524 465.924 399.958 466.152 399.367 466.152Z" fill="#fcd340"/>
<path d="M403.612 315.682H264.752C261.887 315.682 259.563 317.941 259.563 320.727V336.641C259.563 339.427 261.887 341.685 264.752 341.685H403.612C406.477 341.685 408.801 339.427 408.801 336.641V320.727C408.801 317.941 406.477 315.682 403.612 315.682Z" fill="#fcd340"/>
<path d="M403.612 364.317H264.752C261.887 364.317 259.563 366.575 259.563 369.361V385.275C259.563 388.061 261.887 390.32 264.752 390.32H403.612C406.477 390.32 408.801 388.061 408.801 385.275V369.361C408.801 366.575 406.477 364.317 403.612 364.317Z" fill="#fcd340"/>
<path d="M358.904 264.356L344.295 256.179V249.424C346.41 246.936 347.942 244.029 348.785 240.907C349.288 241.081 349.817 241.17 350.351 241.171C352.162 241.171 353.314 235.711 353.508 231.812C355.617 227.472 352.745 224.93 352.745 224.93C352.745 224.93 353.935 223.773 354.724 219.131C355.514 214.489 351.942 216.426 349.16 212.174C346.378 207.922 344.385 203.293 335.25 203.293C332.732 203.212 330.248 203.87 328.121 205.18C325.993 206.49 324.32 208.393 323.319 210.64C321.045 210.647 318.779 210.905 316.564 211.407C313.769 212.174 312.98 221.068 315.361 224.553C316.427 226.457 316.995 228.587 317.017 230.755C316.383 230 315.723 229.799 315.361 231.51C314.572 235.372 317.755 240.781 317.755 240.781L319.398 240.328C320.226 243.665 321.823 246.775 324.069 249.424V256.179L309.46 264.356C307.754 265.314 306.337 266.691 305.351 268.349C304.366 270.007 303.846 271.888 303.844 273.804V278.483C312.533 285.009 323.203 288.549 334.182 288.549C345.162 288.549 355.831 285.009 364.52 278.483V273.804C364.521 271.888 364.002 270.006 363.016 268.347C362.03 266.688 360.612 265.312 358.904 264.356Z" fill="#263238"/>
<path d="M278.469 383.854C278.134 383.849 277.814 383.718 277.576 383.489C277.449 383.378 277.347 383.242 277.278 383.09C277.209 382.939 277.174 382.774 277.175 382.608C277.179 382.381 277.246 382.159 277.369 381.967L279.698 378.344L275.156 378.482C274.985 378.492 274.814 378.467 274.653 378.409C274.492 378.35 274.346 378.259 274.225 378.142C274.014 377.912 273.897 377.614 273.897 377.306C273.897 376.997 274.014 376.699 274.225 376.469C274.344 376.348 274.489 376.253 274.65 376.192C274.811 376.131 274.984 376.106 275.156 376.117L279.633 376.28L277.33 372.67C277.205 372.473 277.138 372.247 277.136 372.016C277.135 371.85 277.17 371.685 277.239 371.533C277.308 371.382 277.41 371.246 277.537 371.135C277.775 370.906 278.095 370.775 278.43 370.77C278.651 370.772 278.866 370.834 279.052 370.95C279.237 371.066 279.385 371.23 279.478 371.425L281.691 375.312L283.878 371.45C283.982 371.244 284.141 371.069 284.34 370.945C284.538 370.821 284.768 370.752 285.004 370.745C285.167 370.746 285.329 370.78 285.478 370.845C285.627 370.91 285.761 371.005 285.871 371.123C286.108 371.362 286.238 371.683 286.233 372.016C286.232 372.232 286.174 372.444 286.065 372.632L283.723 376.28L288.264 376.117C288.437 376.106 288.61 376.131 288.771 376.192C288.932 376.253 289.077 376.348 289.196 376.469C289.417 376.692 289.538 376.99 289.533 377.299C289.532 377.611 289.412 377.912 289.196 378.142C289.074 378.259 288.928 378.35 288.768 378.409C288.607 378.467 288.436 378.492 288.264 378.482L283.697 378.344L285.974 381.929C286.102 382.129 286.169 382.36 286.168 382.596C286.168 382.929 286.032 383.249 285.789 383.485C285.546 383.721 285.217 383.854 284.874 383.854C284.652 383.851 284.436 383.785 284.252 383.664C284.068 383.543 283.925 383.373 283.839 383.174L281.678 379.4L279.53 383.174C279.435 383.372 279.285 383.539 279.098 383.659C278.911 383.779 278.693 383.846 278.469 383.854Z" fill="#263238"/>
<path d="M299.457 383.854C299.122 383.849 298.802 383.718 298.565 383.489C298.437 383.378 298.336 383.242 298.266 383.09C298.197 382.939 298.162 382.774 298.163 382.608C298.167 382.381 298.234 382.159 298.358 381.967L300.687 378.344L296.158 378.482C295.985 378.49 295.812 378.463 295.65 378.405C295.488 378.347 295.339 378.257 295.213 378.142C295.041 377.97 294.927 377.751 294.885 377.515C294.842 377.279 294.874 377.035 294.976 376.817C295.078 376.598 295.245 376.415 295.456 376.29C295.667 376.165 295.911 376.105 296.158 376.117L300.622 376.28L298.319 372.67C298.193 372.473 298.126 372.247 298.125 372.016C298.123 371.85 298.158 371.685 298.228 371.533C298.297 371.382 298.398 371.246 298.526 371.135C298.764 370.906 299.084 370.775 299.419 370.77C299.639 370.772 299.855 370.834 300.04 370.95C300.226 371.066 300.374 371.23 300.467 371.425L302.679 375.312L304.866 371.45C304.97 371.244 305.13 371.069 305.328 370.945C305.527 370.821 305.756 370.752 305.992 370.745C306.156 370.745 306.318 370.778 306.467 370.843C306.617 370.908 306.75 371.003 306.859 371.123C306.979 371.24 307.074 371.38 307.138 371.533C307.203 371.686 307.235 371.85 307.234 372.016C307.23 372.233 307.167 372.445 307.053 372.632L304.711 376.28L309.266 376.142C309.436 376.131 309.607 376.157 309.766 376.218C309.925 376.278 310.068 376.373 310.185 376.494C310.405 376.717 310.526 377.015 310.521 377.325C310.52 377.636 310.4 377.937 310.185 378.167C310.065 378.284 309.921 378.375 309.763 378.434C309.605 378.492 309.435 378.517 309.266 378.507L304.685 378.369L306.963 381.954C307.09 382.154 307.157 382.385 307.157 382.621C307.157 382.954 307.02 383.274 306.778 383.51C306.535 383.746 306.206 383.879 305.863 383.879C305.641 383.876 305.425 383.81 305.241 383.689C305.057 383.569 304.913 383.398 304.828 383.199L302.667 379.425L300.518 383.199C300.42 383.392 300.269 383.555 300.082 383.67C299.895 383.785 299.679 383.849 299.457 383.854Z" fill="#263238"/>
<path d="M320.459 383.854C320.12 383.852 319.794 383.721 319.553 383.489C319.426 383.378 319.324 383.242 319.255 383.09C319.186 382.939 319.151 382.774 319.152 382.608C319.156 382.381 319.223 382.159 319.346 381.967L321.675 378.344L317.146 378.482C316.903 378.491 316.661 378.43 316.453 378.306C316.246 378.181 316.08 378 315.979 377.784C315.878 377.568 315.845 377.328 315.885 377.093C315.924 376.859 316.035 376.642 316.202 376.469C316.324 376.348 316.472 376.254 316.635 376.193C316.798 376.132 316.972 376.106 317.146 376.117L321.611 376.28L319.307 372.67C319.182 372.473 319.115 372.247 319.113 372.016C319.117 371.851 319.155 371.688 319.224 371.537C319.293 371.386 319.391 371.249 319.515 371.135C319.756 370.903 320.081 370.772 320.42 370.77C320.639 370.774 320.851 370.837 321.034 370.953C321.217 371.069 321.363 371.232 321.456 371.425L323.668 375.312L325.855 371.45C325.959 371.244 326.119 371.069 326.317 370.945C326.515 370.821 326.745 370.752 326.981 370.745C327.145 370.745 327.307 370.778 327.456 370.843C327.606 370.908 327.739 371.003 327.848 371.123C327.968 371.24 328.063 371.38 328.127 371.533C328.191 371.686 328.224 371.85 328.223 372.016C328.219 372.233 328.156 372.445 328.042 372.632L325.7 376.28L330.255 376.117C330.422 376.101 330.591 376.119 330.751 376.172C330.91 376.225 331.056 376.31 331.179 376.422C331.301 376.534 331.398 376.67 331.462 376.822C331.525 376.973 331.555 377.136 331.549 377.299C331.551 377.61 331.436 377.91 331.225 378.142C331.103 378.259 330.957 378.35 330.797 378.409C330.636 378.467 330.465 378.492 330.294 378.482L325.726 378.344L327.99 381.929C328.118 382.129 328.185 382.36 328.184 382.596C328.18 382.761 328.143 382.924 328.074 383.075C328.005 383.226 327.906 383.362 327.783 383.476C327.671 383.594 327.535 383.688 327.383 383.753C327.232 383.818 327.069 383.852 326.903 383.854C326.683 383.85 326.469 383.784 326.287 383.663C326.106 383.542 325.964 383.372 325.881 383.174L323.707 379.4L321.559 383.174C321.462 383.378 321.307 383.551 321.112 383.671C320.917 383.792 320.69 383.855 320.459 383.854Z" fill="#263238"/>
<path d="M341.448 383.854C341.108 383.852 340.783 383.721 340.542 383.489C340.298 383.256 340.158 382.94 340.154 382.608C340.15 382.382 340.213 382.159 340.335 381.967L342.664 378.344L338.135 378.482C337.962 378.49 337.79 378.463 337.627 378.405C337.465 378.347 337.316 378.257 337.19 378.142C336.979 377.912 336.863 377.614 336.863 377.306C336.863 376.997 336.979 376.699 337.19 376.469C337.315 376.352 337.464 376.26 337.626 376.199C337.788 376.139 337.961 376.111 338.135 376.117L342.612 376.28L340.322 372.67C340.197 372.473 340.129 372.247 340.128 372.016C340.132 371.851 340.169 371.688 340.238 371.537C340.307 371.386 340.406 371.249 340.529 371.135C340.77 370.903 341.095 370.772 341.435 370.77C341.655 370.772 341.871 370.834 342.056 370.95C342.242 371.066 342.39 371.23 342.483 371.425L344.683 375.312L346.869 371.45C346.973 371.244 347.133 371.069 347.331 370.945C347.53 370.821 347.759 370.752 347.995 370.745C348.159 370.745 348.321 370.778 348.471 370.843C348.62 370.908 348.754 371.003 348.862 371.123C348.982 371.24 349.077 371.38 349.141 371.533C349.206 371.686 349.239 371.85 349.238 372.016C349.233 372.233 349.17 372.445 349.056 372.632L346.714 376.28L351.269 376.117C351.437 376.101 351.606 376.119 351.765 376.172C351.924 376.225 352.07 376.31 352.193 376.422C352.316 376.534 352.412 376.67 352.476 376.822C352.54 376.973 352.569 377.136 352.563 377.299C352.566 377.61 352.451 377.91 352.24 378.142C352.118 378.259 351.972 378.35 351.811 378.409C351.651 378.467 351.479 378.492 351.308 378.482L346.74 378.344L349.005 381.929C349.132 382.129 349.199 382.36 349.199 382.596C349.2 382.762 349.165 382.926 349.096 383.078C349.026 383.23 348.925 383.365 348.798 383.476C348.685 383.594 348.549 383.688 348.398 383.753C348.246 383.818 348.083 383.852 347.918 383.854C347.698 383.85 347.483 383.784 347.302 383.663C347.12 383.542 346.979 383.372 346.895 383.174L344.721 379.4L342.573 383.174C342.475 383.382 342.315 383.557 342.115 383.678C341.915 383.799 341.683 383.86 341.448 383.854Z" fill="#263238"/>
<path d="M362.436 383.854C362.097 383.852 361.772 383.721 361.531 383.489C361.33 383.291 361.202 383.035 361.167 382.76C361.132 382.484 361.192 382.206 361.336 381.967L363.653 378.344L359.124 378.482C358.951 378.49 358.778 378.463 358.616 378.405C358.454 378.347 358.305 378.257 358.179 378.142C357.968 377.912 357.852 377.614 357.852 377.306C357.852 376.997 357.968 376.699 358.179 376.469C358.304 376.352 358.452 376.26 358.615 376.199C358.777 376.139 358.95 376.111 359.124 376.117L363.601 376.28L361.298 372.67C361.172 372.473 361.105 372.247 361.104 372.016C361.108 371.684 361.248 371.367 361.492 371.135C361.733 370.903 362.058 370.772 362.398 370.77C362.618 370.772 362.834 370.834 363.019 370.95C363.205 371.066 363.353 371.23 363.446 371.425L365.646 375.312L367.832 371.45C367.936 371.244 368.096 371.069 368.294 370.945C368.493 370.821 368.722 370.752 368.958 370.745C369.124 370.744 369.288 370.778 369.44 370.843C369.591 370.908 369.727 371.003 369.838 371.123C370.076 371.362 370.206 371.683 370.2 372.016C370.196 372.233 370.133 372.445 370.019 372.632L367.677 376.28L372.232 376.117C372.399 376.101 372.569 376.119 372.728 376.172C372.887 376.225 373.033 376.31 373.156 376.422C373.278 376.534 373.375 376.67 373.439 376.822C373.503 376.973 373.532 377.136 373.526 377.299C373.529 377.61 373.414 377.91 373.202 378.142C373.081 378.26 372.935 378.35 372.774 378.409C372.613 378.467 372.442 378.492 372.271 378.482L367.703 378.344L369.967 381.929C370.095 382.129 370.162 382.36 370.162 382.596C370.163 382.762 370.128 382.926 370.059 383.078C369.989 383.23 369.888 383.365 369.76 383.476C369.648 383.594 369.512 383.688 369.36 383.753C369.209 383.818 369.046 383.852 368.881 383.854C368.66 383.85 368.446 383.784 368.265 383.663C368.083 383.542 367.942 383.372 367.858 383.174L365.684 379.4L363.536 383.174C363.439 383.378 363.284 383.551 363.089 383.671C362.894 383.792 362.667 383.855 362.436 383.854Z" fill="#263238"/>
<path d="M383.425 383.854C383.09 383.849 382.77 383.718 382.532 383.489C382.405 383.378 382.303 383.242 382.234 383.09C382.165 382.939 382.13 382.774 382.131 382.608C382.135 382.381 382.202 382.159 382.325 381.967L384.641 378.344L380.112 378.482C379.946 378.494 379.778 378.473 379.621 378.418C379.463 378.364 379.319 378.279 379.198 378.168C379.076 378.056 378.979 377.922 378.914 377.772C378.849 377.623 378.816 377.462 378.818 377.299C378.818 377.145 378.848 376.993 378.908 376.85C378.968 376.708 379.056 376.578 379.168 376.469C379.287 376.348 379.432 376.253 379.593 376.192C379.754 376.131 379.927 376.106 380.1 376.117L384.577 376.28L382.273 372.67C382.148 372.473 382.081 372.247 382.079 372.016C382.084 371.684 382.224 371.367 382.468 371.135C382.709 370.903 383.034 370.772 383.373 370.77C383.594 370.772 383.809 370.834 383.995 370.95C384.18 371.066 384.328 371.23 384.421 371.425L386.621 375.312L388.821 371.45C388.924 371.245 389.082 371.072 389.277 370.948C389.473 370.824 389.7 370.754 389.934 370.745C390.1 370.744 390.264 370.778 390.415 370.843C390.567 370.908 390.703 371.003 390.814 371.123C391.051 371.362 391.182 371.683 391.176 372.016C391.175 372.232 391.118 372.444 391.008 372.632L388.666 376.28L393.208 376.117C393.38 376.106 393.553 376.131 393.714 376.192C393.875 376.253 394.02 376.348 394.139 376.469C394.36 376.692 394.481 376.99 394.476 377.299C394.475 377.611 394.355 377.912 394.139 378.142C394.018 378.26 393.872 378.35 393.711 378.409C393.55 378.467 393.379 378.492 393.208 378.482L388.64 378.344L390.904 381.929C391.032 382.129 391.099 382.36 391.099 382.596C391.094 382.927 390.954 383.244 390.71 383.476C390.475 383.71 390.154 383.846 389.817 383.854C389.597 383.85 389.383 383.784 389.202 383.663C389.02 383.542 388.879 383.372 388.795 383.174L386.621 379.4L384.473 383.174C384.38 383.371 384.233 383.538 384.048 383.658C383.863 383.778 383.647 383.846 383.425 383.854Z" fill="#263238"/>
<g style="mix-blend-mode:multiply">
<path d="M448.707 128.995H219.644V142.947H448.707V128.995Z" fill="#fcd340"/>
</g>
<path d="M359.085 103.294H309.266C308.367 103.294 307.505 102.947 306.869 102.329C306.233 101.711 305.876 100.873 305.876 99.9984C305.876 99.1243 306.233 98.286 306.869 97.6678C307.505 97.0497 308.367 96.7025 309.266 96.7025H359.085C359.984 96.7025 360.847 97.0497 361.482 97.6678C362.118 98.286 362.475 99.1243 362.475 99.9984C362.475 100.873 362.118 101.711 361.482 102.329C360.847 102.947 359.984 103.294 359.085 103.294Z" fill="#fcd340" stroke="#263238" stroke-width="1.33739" stroke-linecap="round" stroke-linejoin="round"/>
<path d="M347.762 509.163C347.765 506.549 346.97 503.994 345.478 501.82C343.986 499.646 341.864 497.951 339.381 496.949C336.898 495.948 334.165 495.685 331.528 496.195C328.891 496.704 326.469 497.962 324.568 499.81C322.667 501.658 321.373 504.013 320.849 506.576C320.325 509.14 320.595 511.797 321.625 514.211C322.655 516.625 324.399 518.688 326.635 520.138C328.871 521.589 331.5 522.362 334.188 522.359C337.787 522.356 341.238 520.965 343.783 518.491C346.328 516.016 347.759 512.662 347.762 509.163Z" fill="#fcd340"/>
<path d="M341.073 502.47H327.304V515.855H341.073V502.47Z" fill="#fcd340" stroke="#263238" stroke-width="1.33739" stroke-linecap="round" stroke-linejoin="round"/>
<path d="M498.19 357.272C498.19 357.272 480.152 312.714 496.21 307.417C512.929 301.895 512.191 331.319 511.544 345.661C510.185 376.306 506.705 382.004 504.104 374.519L498.19 357.272ZM492.768 392.031C497.724 398.321 499.122 391.804 490.18 362.379C485.988 348.541 476.878 320.551 462.903 331.055C449.484 341.119 481.42 377.601 481.42 377.601L492.768 392.031ZM483.193 417.568C487.916 421.644 488.006 416.499 476.787 395.251C471.521 385.3 460.379 365.16 451.257 375.123C442.496 384.734 472.349 408.095 472.349 408.095L483.193 417.568ZM472.841 447.936C477.564 452.025 477.654 446.867 466.435 425.632C461.169 415.681 450.027 395.528 440.905 405.504C432.196 415.14 461.958 438.501 461.958 438.501L472.841 447.936ZM502.732 386.118C495.175 388.986 501.179 392.106 532.74 392.018C547.543 392.018 577.771 391.364 571.327 375.375C565.155 360.014 520.201 379.576 520.201 379.576L502.732 386.118ZM494.127 406.548C486.13 407.894 491.384 412.121 522.336 418.134C536.842 420.965 566.591 426.185 563.55 409.328C560.638 393.075 512.579 403.566 512.579 403.566L494.127 406.548ZM484.5 431.494C477.693 432.45 482.041 436.136 508.063 441.923C520.266 444.64 545.305 449.735 543.131 435.356C541.06 421.518 500.17 429.343 500.17 429.343L484.5 431.494ZM477.188 454.603C470.524 456.251 475.247 459.472 501.774 462.541C514.197 463.976 539.65 466.466 535.936 452.389C532.352 438.878 492.548 450.842 492.548 450.842L477.188 454.603ZM516.19 361.046C512.308 369.5 520.369 368.217 547.776 344.969C560.613 334.062 586.363 311.242 565.97 299.882C546.392 288.963 525.338 341.648 525.338 341.648L516.19 361.046ZM478.198 484.707C474.096 487.035 478.12 487.94 496.935 484.292C505.76 482.594 523.708 478.82 517.639 471.373C511.764 464.202 487.696 479.298 487.696 479.298L478.198 484.707Z" fill="#fcd340"/>
<path opacity="0.3" d="M498.19 357.272C498.19 357.272 480.152 312.714 496.21 307.417C512.929 301.895 512.191 331.319 511.544 345.661C510.185 376.306 506.705 382.004 504.104 374.519L498.19 357.272ZM492.768 392.031C497.724 398.321 499.122 391.804 490.18 362.379C485.988 348.541 476.878 320.551 462.903 331.055C449.484 341.119 481.42 377.601 481.42 377.601L492.768 392.031ZM483.193 417.568C487.916 421.644 488.006 416.499 476.787 395.251C471.521 385.3 460.379 365.16 451.257 375.123C442.496 384.734 472.349 408.095 472.349 408.095L483.193 417.568ZM472.841 447.936C477.564 452.025 477.654 446.867 466.435 425.632C461.169 415.681 450.027 395.528 440.905 405.504C432.196 415.14 461.958 438.501 461.958 438.501L472.841 447.936ZM502.732 386.118C495.175 388.986 501.179 392.106 532.74 392.018C547.543 392.018 577.771 391.364 571.327 375.375C565.155 360.014 520.201 379.576 520.201 379.576L502.732 386.118ZM494.127 406.548C486.13 407.894 491.384 412.121 522.336 418.134C536.842 420.965 566.591 426.185 563.55 409.328C560.638 393.075 512.579 403.566 512.579 403.566L494.127 406.548ZM484.5 431.494C477.693 432.45 482.041 436.136 508.063 441.923C520.266 444.64 545.305 449.735 543.131 435.356C541.06 421.518 500.17 429.343 500.17 429.343L484.5 431.494ZM477.188 454.603C470.524 456.251 475.247 459.472 501.774 462.541C514.197 463.976 539.65 466.466 535.936 452.389C532.352 438.878 492.548 450.842 492.548 450.842L477.188 454.603ZM516.19 361.046C512.308 369.5 520.369 368.217 547.776 344.969C560.613 334.062 586.363 311.242 565.97 299.882C546.392 288.963 525.338 341.648 525.338 341.648L516.19 361.046ZM478.198 484.707C474.096 487.035 478.12 487.94 496.935 484.292C505.76 482.594 523.708 478.82 517.639 471.373C511.764 464.202 487.696 479.298 487.696 479.298L478.198 484.707Z" fill="white"/>
<path d="M506.148 378.016L503.004 327.155L506.148 378.016ZM496.197 394.798L476.321 351.057L496.197 394.798ZM547.491 382.08L499.859 388.722L547.491 382.08ZM485.897 418.373L460.108 386.206L485.897 418.373ZM490.426 408.51L525.959 410.246L490.426 408.51ZM482.015 433.18L509.189 435.796L482.015 433.18ZM475.454 448.854L461.958 429.116L475.454 448.854ZM473.902 455.824L505.851 456.113L473.902 455.824ZM467.432 514.094C467.646 514.078 467.845 513.981 467.985 513.823C468.126 513.665 468.196 513.46 468.182 513.251C466.151 483.588 477.952 435.004 496.883 395.125C508.982 369.638 556.407 319.545 556.912 319.041C557.064 318.893 557.15 318.691 557.15 318.482C557.15 318.272 557.064 318.07 556.912 317.922C556.837 317.849 556.748 317.791 556.651 317.751C556.553 317.712 556.448 317.691 556.342 317.691C556.237 317.691 556.132 317.712 556.034 317.751C555.936 317.791 555.848 317.849 555.773 317.922C555.294 318.425 507.675 368.707 495.473 394.421C476.192 435.268 464.546 482.971 466.616 513.352C466.633 513.552 466.725 513.74 466.876 513.877C467.027 514.014 467.225 514.092 467.432 514.094ZM506.135 378.796C506.349 378.783 506.549 378.689 506.692 378.534C506.835 378.378 506.909 378.174 506.899 377.966L503.806 327.08C503.801 326.976 503.775 326.875 503.729 326.781C503.683 326.687 503.619 326.604 503.539 326.535C503.46 326.465 503.367 326.412 503.266 326.379C503.165 326.345 503.058 326.331 502.952 326.338C502.738 326.351 502.538 326.445 502.395 326.601C502.252 326.756 502.178 326.96 502.188 327.168L505.333 378.029C505.343 378.229 505.432 378.418 505.581 378.556C505.731 378.694 505.929 378.771 506.135 378.771V378.796ZM496.482 395.515C496.676 395.43 496.828 395.274 496.905 395.081C496.982 394.889 496.979 394.674 496.896 394.484L477.007 350.743C476.921 350.553 476.761 350.404 476.562 350.328C476.364 350.253 476.142 350.257 475.946 350.34C475.751 350.424 475.597 350.579 475.519 350.773C475.442 350.966 475.446 351.182 475.532 351.372L495.408 395.113C495.47 395.253 495.573 395.373 495.704 395.458C495.835 395.542 495.988 395.589 496.146 395.591C496.279 395.597 496.413 395.571 496.534 395.515H496.482ZM499.924 389.477L547.53 382.86C547.645 382.857 547.758 382.831 547.862 382.784C547.966 382.736 548.059 382.667 548.133 382.582C548.208 382.497 548.263 382.398 548.296 382.29C548.328 382.183 548.337 382.07 548.321 381.96C548.305 381.849 548.266 381.743 548.205 381.648C548.144 381.553 548.063 381.472 547.968 381.409C547.872 381.347 547.764 381.305 547.651 381.286C547.538 381.267 547.422 381.272 547.31 381.3L499.704 387.917C499.491 387.93 499.293 388.025 499.152 388.181C499.011 388.337 498.94 388.54 498.953 388.747C498.967 388.954 499.065 389.147 499.225 389.284C499.385 389.421 499.595 389.49 499.808 389.477H499.924ZM486.35 419.002C486.519 418.873 486.629 418.684 486.655 418.477C486.682 418.27 486.623 418.061 486.492 417.895L460.69 385.665C460.558 385.498 460.363 385.389 460.148 385.362C459.933 385.335 459.716 385.392 459.545 385.52C459.373 385.649 459.261 385.838 459.233 386.047C459.205 386.256 459.264 386.467 459.396 386.634L485.25 418.914C485.325 419.008 485.421 419.084 485.531 419.136C485.641 419.189 485.762 419.216 485.884 419.216C486.077 419.207 486.261 419.131 486.402 419.002H486.35ZM526.671 410.284C526.678 410.076 526.601 409.874 526.455 409.721C526.31 409.567 526.109 409.476 525.895 409.466L490.426 407.718C490.227 407.731 490.039 407.815 489.9 407.954C489.76 408.093 489.677 408.276 489.668 408.47C489.658 408.664 489.722 408.855 489.848 409.006C489.973 409.157 490.151 409.258 490.348 409.29L525.882 411.039C526.096 411.046 526.304 410.97 526.461 410.829C526.619 410.688 526.713 410.492 526.723 410.284H526.671ZM509.94 435.872C509.952 435.768 509.943 435.663 509.913 435.563C509.883 435.463 509.833 435.37 509.766 435.289C509.698 435.208 509.615 435.141 509.52 435.092C509.425 435.043 509.322 435.013 509.215 435.004L482.041 432.4C481.935 432.389 481.829 432.399 481.728 432.429C481.626 432.459 481.532 432.508 481.45 432.574C481.368 432.639 481.3 432.72 481.251 432.811C481.201 432.902 481.171 433.002 481.161 433.104C481.143 433.311 481.209 433.516 481.344 433.676C481.479 433.835 481.674 433.937 481.886 433.96L509.06 436.576H509.137C509.346 436.59 509.552 436.525 509.712 436.393C509.871 436.261 509.972 436.074 509.991 435.872H509.94ZM475.843 449.509C476.022 449.393 476.148 449.213 476.191 449.008C476.235 448.803 476.193 448.589 476.076 448.414L462.644 428.676C462.521 428.506 462.335 428.389 462.125 428.349C461.915 428.309 461.698 428.35 461.518 428.462C461.338 428.578 461.213 428.758 461.169 428.963C461.126 429.168 461.167 429.381 461.285 429.557L474.717 449.295C474.794 449.403 474.896 449.491 475.016 449.552C475.135 449.614 475.268 449.646 475.403 449.647C475.578 449.656 475.751 449.607 475.894 449.509H475.843ZM506.666 456.113C506.663 455.906 506.577 455.708 506.428 455.56C506.279 455.413 506.076 455.327 505.863 455.321L473.915 455.031C473.702 455.031 473.498 455.113 473.347 455.26C473.197 455.406 473.112 455.604 473.112 455.811C473.109 455.915 473.127 456.019 473.166 456.115C473.205 456.212 473.264 456.301 473.339 456.375C473.414 456.449 473.503 456.507 473.602 456.547C473.701 456.586 473.808 456.605 473.915 456.604L505.863 456.893C505.973 456.898 506.082 456.882 506.184 456.845C506.287 456.808 506.381 456.752 506.461 456.679C506.54 456.606 506.604 456.519 506.648 456.421C506.692 456.324 506.716 456.219 506.717 456.113H506.666ZM463.796 502.558C463.86 502.42 469.308 487.827 485.69 484.343C485.901 484.297 486.085 484.173 486.201 483.996C486.318 483.819 486.357 483.604 486.311 483.399C486.259 483.198 486.129 483.024 485.948 482.914C485.767 482.804 485.55 482.766 485.341 482.808C468.066 486.481 462.333 501.892 462.269 502.043C462.202 502.241 462.217 502.457 462.312 502.645C462.406 502.833 462.571 502.978 462.773 503.049H463.032C463.204 503.063 463.376 503.024 463.523 502.935C463.67 502.847 463.784 502.715 463.847 502.558H463.796ZM467.432 514.094C467.646 514.078 467.845 513.981 467.985 513.823C468.126 513.665 468.196 513.46 468.182 513.251C466.151 483.588 477.952 435.004 496.883 395.125C508.982 369.638 556.407 319.545 556.912 319.041C557.064 318.893 557.15 318.691 557.15 318.482C557.15 318.272 557.064 318.07 556.912 317.922C556.837 317.849 556.748 317.791 556.651 317.751C556.553 317.712 556.448 317.691 556.342 317.691C556.237 317.691 556.132 317.712 556.034 317.751C555.936 317.791 555.848 317.849 555.773 317.922C555.294 318.425 507.675 368.707 495.473 394.421C476.192 435.268 464.546 482.971 466.616 513.352C466.633 513.552 466.725 513.74 466.876 513.877C467.027 514.014 467.225 514.092 467.432 514.094ZM506.135 378.796C506.349 378.783 506.549 378.689 506.692 378.534C506.835 378.378 506.909 378.174 506.899 377.966L503.806 327.08C503.801 326.976 503.775 326.875 503.729 326.781C503.683 326.687 503.619 326.604 503.539 326.535C503.46 326.465 503.367 326.412 503.266 326.379C503.165 326.345 503.058 326.331 502.952 326.338C502.738 326.351 502.538 326.445 502.395 326.601C502.252 326.756 502.178 326.96 502.188 327.168L505.333 378.029C505.343 378.229 505.432 378.418 505.581 378.556C505.731 378.694 505.929 378.771 506.135 378.771V378.796ZM496.482 395.515C496.676 395.43 496.828 395.274 496.905 395.081C496.982 394.889 496.979 394.674 496.896 394.484L477.007 350.743C476.921 350.553 476.761 350.404 476.562 350.328C476.364 350.253 476.142 350.257 475.946 350.34C475.751 350.424 475.597 350.579 475.519 350.773C475.442 350.966 475.446 351.182 475.532 351.372L495.408 395.113C495.47 395.253 495.573 395.373 495.704 395.458C495.835 395.542 495.988 395.589 496.146 395.591C496.279 395.597 496.413 395.571 496.534 395.515H496.482ZM499.924 389.477L547.53 382.86C547.645 382.857 547.758 382.831 547.862 382.784C547.966 382.736 548.059 382.667 548.133 382.582C548.208 382.497 548.263 382.398 548.296 382.29C548.328 382.183 548.337 382.07 548.321 381.96C548.305 381.849 548.266 381.743 548.205 381.648C548.144 381.553 548.063 381.472 547.968 381.409C547.872 381.347 547.764 381.305 547.651 381.286C547.538 381.267 547.422 381.272 547.31 381.3L499.704 387.917C499.491 387.93 499.293 388.025 499.152 388.181C499.011 388.337 498.94 388.54 498.953 388.747C498.967 388.954 499.065 389.147 499.225 389.284C499.385 389.421 499.595 389.49 499.808 389.477H499.924ZM486.35 419.002C486.519 418.873 486.629 418.684 486.655 418.477C486.682 418.27 486.623 418.061 486.492 417.895L460.69 385.665C460.624 385.582 460.543 385.513 460.45 385.461C460.357 385.409 460.254 385.376 460.148 385.362C460.042 385.349 459.934 385.356 459.83 385.383C459.727 385.41 459.63 385.457 459.545 385.52C459.46 385.584 459.389 385.663 459.335 385.754C459.282 385.844 459.247 385.944 459.233 386.047C459.219 386.15 459.227 386.255 459.255 386.356C459.282 386.457 459.33 386.551 459.396 386.634L485.25 418.914C485.325 419.008 485.421 419.084 485.531 419.136C485.641 419.189 485.762 419.216 485.884 419.216C486.077 419.207 486.261 419.131 486.402 419.002H486.35ZM526.671 410.284C526.678 410.076 526.601 409.874 526.455 409.721C526.31 409.567 526.109 409.476 525.895 409.466L490.426 407.718C490.227 407.731 490.039 407.815 489.9 407.954C489.76 408.093 489.677 408.276 489.668 408.47C489.658 408.664 489.722 408.855 489.848 409.006C489.973 409.157 490.151 409.258 490.348 409.29L525.882 411.039C526.096 411.046 526.304 410.97 526.461 410.829C526.619 410.688 526.713 410.492 526.723 410.284H526.671ZM509.94 435.872C509.952 435.768 509.943 435.663 509.913 435.563C509.883 435.463 509.833 435.37 509.766 435.289C509.698 435.208 509.615 435.141 509.52 435.092C509.425 435.043 509.322 435.013 509.215 435.004L482.041 432.4C481.935 432.389 481.829 432.399 481.728 432.429C481.626 432.459 481.532 432.508 481.45 432.574C481.368 432.639 481.3 432.72 481.251 432.811C481.201 432.902 481.171 433.002 481.161 433.104C481.143 433.311 481.209 433.516 481.344 433.676C481.479 433.835 481.674 433.937 481.886 433.96L509.06 436.576H509.137C509.346 436.59 509.552 436.525 509.712 436.393C509.871 436.261 509.972 436.074 509.991 435.872H509.94ZM475.843 449.509C476.022 449.393 476.148 449.213 476.191 449.008C476.235 448.803 476.193 448.589 476.076 448.414L462.644 428.676C462.521 428.506 462.335 428.389 462.125 428.349C461.915 428.309 461.698 428.35 461.518 428.462C461.338 428.578 461.213 428.758 461.169 428.963C461.126 429.168 461.167 429.381 461.285 429.557L474.717 449.295C474.794 449.403 474.896 449.491 475.016 449.552C475.135 449.614 475.268 449.646 475.403 449.647C475.578 449.656 475.751 449.607 475.894 449.509H475.843ZM506.666 456.113C506.663 455.906 506.577 455.708 506.428 455.56C506.279 455.413 506.076 455.327 505.863 455.321L473.915 455.031C473.702 455.031 473.498 455.113 473.347 455.26C473.197 455.406 473.112 455.604 473.112 455.811C473.109 455.915 473.127 456.019 473.166 456.115C473.205 456.212 473.264 456.301 473.339 456.375C473.414 456.449 473.503 456.507 473.602 456.547C473.701 456.586 473.808 456.605 473.915 456.604L505.863 456.893C505.973 456.898 506.082 456.882 506.184 456.845C506.287 456.808 506.381 456.752 506.461 456.679C506.54 456.606 506.604 456.519 506.648 456.421C506.692 456.324 506.716 456.219 506.717 456.113H506.666ZM463.796 502.558C463.86 502.42 469.308 487.827 485.69 484.343C485.901 484.297 486.085 484.173 486.201 483.996C486.318 483.819 486.357 483.604 486.311 483.399C486.259 483.198 486.129 483.024 485.948 482.914C485.767 482.804 485.55 482.766 485.341 482.808C468.066 486.481 462.333 501.892 462.269 502.043C462.202 502.241 462.217 502.457 462.312 502.645C462.406 502.833 462.571 502.978 462.773 503.049H463.032C463.204 503.063 463.376 503.024 463.523 502.935C463.67 502.847 463.784 502.715 463.847 502.558H463.796Z" fill="#fcd340"/>
<path opacity="0.2" d="M506.148 378.016L503.004 327.155L506.148 378.016ZM496.197 394.798L476.321 351.057L496.197 394.798ZM547.491 382.08L499.859 388.722L547.491 382.08ZM485.897 418.373L460.108 386.206L485.897 418.373ZM490.426 408.51L525.959 410.246L490.426 408.51ZM482.015 433.18L509.189 435.796L482.015 433.18ZM475.454 448.854L461.958 429.116L475.454 448.854ZM473.902 455.824L505.851 456.113L473.902 455.824ZM467.432 514.094C467.646 514.078 467.845 513.981 467.985 513.823C468.126 513.665 468.196 513.46 468.182 513.251C466.151 483.588 477.952 435.004 496.883 395.125C508.982 369.638 556.407 319.545 556.912 319.041C557.064 318.893 557.15 318.691 557.15 318.482C557.15 318.272 557.064 318.07 556.912 317.922C556.837 317.849 556.748 317.791 556.651 317.751C556.553 317.712 556.448 317.691 556.342 317.691C556.237 317.691 556.132 317.712 556.034 317.751C555.936 317.791 555.848 317.849 555.773 317.922C555.294 318.425 507.675 368.707 495.473 394.421C476.192 435.268 464.546 482.971 466.616 513.352C466.633 513.552 466.725 513.74 466.876 513.877C467.027 514.014 467.225 514.092 467.432 514.094ZM506.135 378.796C506.349 378.783 506.549 378.689 506.692 378.534C506.835 378.378 506.909 378.174 506.899 377.966L503.806 327.08C503.801 326.976 503.775 326.875 503.729 326.781C503.683 326.687 503.619 326.604 503.539 326.535C503.46 326.465 503.367 326.412 503.266 326.379C503.165 326.345 503.058 326.331 502.952 326.338C502.738 326.351 502.538 326.445 502.395 326.601C502.252 326.756 502.178 326.96 502.188 327.168L505.333 378.029C505.343 378.229 505.432 378.418 505.581 378.556C505.731 378.694 505.929 378.771 506.135 378.771V378.796ZM496.482 395.515C496.676 395.43 496.828 395.274 496.905 395.081C496.982 394.889 496.979 394.674 496.896 394.484L477.007 350.743C476.921 350.553 476.761 350.404 476.562 350.328C476.364 350.253 476.142 350.257 475.946 350.34C475.751 350.424 475.597 350.579 475.519 350.773C475.442 350.966 475.446 351.182 475.532 351.372L495.408 395.113C495.47 395.253 495.573 395.373 495.704 395.458C495.835 395.542 495.988 395.589 496.146 395.591C496.279 395.597 496.413 395.571 496.534 395.515H496.482ZM499.924 389.477L547.53 382.86C547.645 382.857 547.758 382.831 547.862 382.784C547.966 382.736 548.059 382.667 548.133 382.582C548.208 382.497 548.263 382.398 548.296 382.29C548.328 382.183 548.337 382.07 548.321 381.96C548.305 381.849 548.266 381.743 548.205 381.648C548.144 381.553 548.063 381.472 547.968 381.409C547.872 381.347 547.764 381.305 547.651 381.286C547.538 381.267 547.422 381.272 547.31 381.3L499.704 387.917C499.491 387.93 499.293 388.025 499.152 388.181C499.011 388.337 498.94 388.54 498.953 388.747C498.967 388.954 499.065 389.147 499.225 389.284C499.385 389.421 499.595 389.49 499.808 389.477H499.924ZM486.35 419.002C486.519 418.873 486.629 418.684 486.655 418.477C486.682 418.27 486.623 418.061 486.492 417.895L460.69 385.665C460.558 385.498 460.363 385.389 460.148 385.362C459.933 385.335 459.716 385.392 459.545 385.52C459.373 385.649 459.261 385.838 459.233 386.047C459.205 386.256 459.264 386.467 459.396 386.634L485.25 418.914C485.325 419.008 485.421 419.084 485.531 419.136C485.641 419.189 485.762 419.216 485.884 419.216C486.077 419.207 486.261 419.131 486.402 419.002H486.35ZM526.671 410.284C526.678 410.076 526.601 409.874 526.455 409.721C526.31 409.567 526.109 409.476 525.895 409.466L490.426 407.718C490.227 407.731 490.039 407.815 489.9 407.954C489.76 408.093 489.677 408.276 489.668 408.47C489.658 408.664 489.722 408.855 489.848 409.006C489.973 409.157 490.151 409.258 490.348 409.29L525.882 411.039C526.096 411.046 526.304 410.97 526.461 410.829C526.619 410.688 526.713 410.492 526.723 410.284H526.671ZM509.94 435.872C509.952 435.768 509.943 435.663 509.913 435.563C509.883 435.463 509.833 435.37 509.766 435.289C509.698 435.208 509.615 435.141 509.52 435.092C509.425 435.043 509.322 435.013 509.215 435.004L482.041 432.4C481.935 432.389 481.829 432.399 481.728 432.429C481.626 432.459 481.532 432.508 481.45 432.574C481.368 432.639 481.3 432.72 481.251 432.811C481.201 432.902 481.171 433.002 481.161 433.104C481.143 433.311 481.209 433.516 481.344 433.676C481.479 433.835 481.674 433.937 481.886 433.96L509.06 436.576H509.137C509.346 436.59 509.552 436.525 509.712 436.393C509.871 436.261 509.972 436.074 509.991 435.872H509.94ZM475.843 449.509C476.022 449.393 476.148 449.213 476.191 449.008C476.235 448.803 476.193 448.589 476.076 448.414L462.644 428.676C462.521 428.506 462.335 428.389 462.125 428.349C461.915 428.309 461.698 428.35 461.518 428.462C461.338 428.578 461.213 428.758 461.169 428.963C461.126 429.168 461.167 429.381 461.285 429.557L474.717 449.295C474.794 449.403 474.896 449.491 475.016 449.552C475.135 449.614 475.268 449.646 475.403 449.647C475.578 449.656 475.751 449.607 475.894 449.509H475.843ZM506.666 456.113C506.663 455.906 506.577 455.708 506.428 455.56C506.279 455.413 506.076 455.327 505.863 455.321L473.915 455.031C473.702 455.031 473.498 455.113 473.347 455.26C473.197 455.406 473.112 455.604 473.112 455.811C473.109 455.915 473.127 456.019 473.166 456.115C473.205 456.212 473.264 456.301 473.339 456.375C473.414 456.449 473.503 456.507 473.602 456.547C473.701 456.586 473.808 456.605 473.915 456.604L505.863 456.893C505.973 456.898 506.082 456.882 506.184 456.845C506.287 456.808 506.381 456.752 506.461 456.679C506.54 456.606 506.604 456.519 506.648 456.421C506.692 456.324 506.716 456.219 506.717 456.113H506.666ZM463.796 502.558C463.86 502.42 469.308 487.827 485.69 484.343C485.901 484.297 486.085 484.173 486.201 483.996C486.318 483.819 486.357 483.604 486.311 483.399C486.259 483.198 486.129 483.024 485.948 482.914C485.767 482.804 485.55 482.766 485.341 482.808C468.066 486.481 462.333 501.892 462.269 502.043C462.202 502.241 462.217 502.457 462.312 502.645C462.406 502.833 462.571 502.978 462.773 503.049H463.032C463.204 503.063 463.376 503.024 463.523 502.935C463.67 502.847 463.784 502.715 463.847 502.558H463.796ZM467.432 514.094C467.646 514.078 467.845 513.981 467.985 513.823C468.126 513.665 468.196 513.46 468.182 513.251C466.151 483.588 477.952 435.004 496.883 395.125C508.982 369.638 556.407 319.545 556.912 319.041C557.064 318.893 557.15 318.691 557.15 318.482C557.15 318.272 557.064 318.07 556.912 317.922C556.837 317.849 556.748 317.791 556.651 317.751C556.553 317.712 556.448 317.691 556.342 317.691C556.237 317.691 556.132 317.712 556.034 317.751C555.936 317.791 555.848 317.849 555.773 317.922C555.294 318.425 507.675 368.707 495.473 394.421C476.192 435.268 464.546 482.971 466.616 513.352C466.633 513.552 466.725 513.74 466.876 513.877C467.027 514.014 467.225 514.092 467.432 514.094ZM506.135 378.796C506.349 378.783 506.549 378.689 506.692 378.534C506.835 378.378 506.909 378.174 506.899 377.966L503.806 327.08C503.801 326.976 503.775 326.875 503.729 326.781C503.683 326.687 503.619 326.604 503.539 326.535C503.46 326.465 503.367 326.412 503.266 326.379C503.165 326.345 503.058 326.331 502.952 326.338C502.738 326.351 502.538 326.445 502.395 326.601C502.252 326.756 502.178 326.96 502.188 327.168L505.333 378.029C505.343 378.229 505.432 378.418 505.581 378.556C505.731 378.694 505.929 378.771 506.135 378.771V378.796ZM496.482 395.515C496.676 395.43 496.828 395.274 496.905 395.081C496.982 394.889 496.979 394.674 496.896 394.484L477.007 350.743C476.921 350.553 476.761 350.404 476.562 350.328C476.364 350.253 476.142 350.257 475.946 350.34C475.751 350.424 475.597 350.579 475.519 350.773C475.442 350.966 475.446 351.182 475.532 351.372L495.408 395.113C495.47 395.253 495.573 395.373 495.704 395.458C495.835 395.542 495.988 395.589 496.146 395.591C496.279 395.597 496.413 395.571 496.534 395.515H496.482ZM499.924 389.477L547.53 382.86C547.645 382.857 547.758 382.831 547.862 382.784C547.966 382.736 548.059 382.667 548.133 382.582C548.208 382.497 548.263 382.398 548.296 382.29C548.328 382.183 548.337 382.07 548.321 381.96C548.305 381.849 548.266 381.743 548.205 381.648C548.144 381.553 548.063 381.472 547.968 381.409C547.872 381.347 547.764 381.305 547.651 381.286C547.538 381.267 547.422 381.272 547.31 381.3L499.704 387.917C499.491 387.93 499.293 388.025 499.152 388.181C499.011 388.337 498.94 388.54 498.953 388.747C498.967 388.954 499.065 389.147 499.225 389.284C499.385 389.421 499.595 389.49 499.808 389.477H499.924ZM486.35 419.002C486.519 418.873 486.629 418.684 486.655 418.477C486.682 418.27 486.623 418.061 486.492 417.895L460.69 385.665C460.624 385.582 460.543 385.513 460.45 385.461C460.357 385.409 460.254 385.376 460.148 385.362C460.042 385.349 459.934 385.356 459.83 385.383C459.727 385.41 459.63 385.457 459.545 385.52C459.46 385.584 459.389 385.663 459.335 385.754C459.282 385.844 459.247 385.944 459.233 386.047C459.219 386.15 459.227 386.255 459.255 386.356C459.282 386.457 459.33 386.551 459.396 386.634L485.25 418.914C485.325 419.008 485.421 419.084 485.531 419.136C485.641 419.189 485.762 419.216 485.884 419.216C486.077 419.207 486.261 419.131 486.402 419.002H486.35ZM526.671 410.284C526.678 410.076 526.601 409.874 526.455 409.721C526.31 409.567 526.109 409.476 525.895 409.466L490.426 407.718C490.227 407.731 490.039 407.815 489.9 407.954C489.76 408.093 489.677 408.276 489.668 408.47C489.658 408.664 489.722 408.855 489.848 409.006C489.973 409.157 490.151 409.258 490.348 409.29L525.882 411.039C526.096 411.046 526.304 410.97 526.461 410.829C526.619 410.688 526.713 410.492 526.723 410.284H526.671ZM509.94 435.872C509.952 435.768 509.943 435.663 509.913 435.563C509.883 435.463 509.833 435.37 509.766 435.289C509.698 435.208 509.615 435.141 509.52 435.092C509.425 435.043 509.322 435.013 509.215 435.004L482.041 432.4C481.935 432.389 481.829 432.399 481.728 432.429C481.626 432.459 481.532 432.508 481.45 432.574C481.368 432.639 481.3 432.72 481.251 432.811C481.201 432.902 481.171 433.002 481.161 433.104C481.143 433.311 481.209 433.516 481.344 433.676C481.479 433.835 481.674 433.937 481.886 433.96L509.06 436.576H509.137C509.346 436.59 509.552 436.525 509.712 436.393C509.871 436.261 509.972 436.074 509.991 435.872H509.94ZM475.843 449.509C476.022 449.393 476.148 449.213 476.191 449.008C476.235 448.803 476.193 448.589 476.076 448.414L462.644 428.676C462.521 428.506 462.335 428.389 462.125 428.349C461.915 428.309 461.698 428.35 461.518 428.462C461.338 428.578 461.213 428.758 461.169 428.963C461.126 429.168 461.167 429.381 461.285 429.557L474.717 449.295C474.794 449.403 474.896 449.491 475.016 449.552C475.135 449.614 475.268 449.646 475.403 449.647C475.578 449.656 475.751 449.607 475.894 449.509H475.843ZM506.666 456.113C506.663 455.906 506.577 455.708 506.428 455.56C506.279 455.413 506.076 455.327 505.863 455.321L473.915 455.031C473.702 455.031 473.498 455.113 473.347 455.26C473.197 455.406 473.112 455.604 473.112 455.811C473.109 455.915 473.127 456.019 473.166 456.115C473.205 456.212 473.264 456.301 473.339 456.375C473.414 456.449 473.503 456.507 473.602 456.547C473.701 456.586 473.808 456.605 473.915 456.604L505.863 456.893C505.973 456.898 506.082 456.882 506.184 456.845C506.287 456.808 506.381 456.752 506.461 456.679C506.54 456.606 506.604 456.519 506.648 456.421C506.692 456.324 506.716 456.219 506.717 456.113H506.666ZM463.796 502.558C463.86 502.42 469.308 487.827 485.69 484.343C485.901 484.297 486.085 484.173 486.201 483.996C486.318 483.819 486.357 483.604 486.311 483.399C486.259 483.198 486.129 483.024 485.948 482.914C485.767 482.804 485.55 482.766 485.341 482.808C468.066 486.481 462.333 501.892 462.269 502.043C462.202 502.241 462.217 502.457 462.312 502.645C462.406 502.833 462.571 502.978 462.773 503.049H463.032C463.204 503.063 463.376 503.024 463.523 502.935C463.67 502.847 463.784 502.715 463.847 502.558H463.796Z" fill="black"/>
<path d="M488.563 491.916H451.929V499.288H455.126L461.738 539.506H478.754L485.366 499.288H488.563V491.916Z" fill="#fcd340"/>
<path opacity="0.3" d="M488.563 491.916H451.929V499.288H455.126L461.738 539.506H478.754L485.366 499.288H488.563V491.916Z" fill="white"/>
<path d="M158.748 268.998L116.136 255.475L112.345 245.738L103.688 245.474L87.979 242.58L89.8682 245.738L109.641 259.689L114.519 262.054L159.084 284.685L158.748 268.998Z" fill="white" stroke="#263238" stroke-width="1.00396" stroke-miterlimit="10"/>
<path d="M112.345 245.738L108.282 243.373L100.168 246.266L101.514 247.839L112.345 245.738Z" fill="white" stroke="#263238" stroke-width="1.00396" stroke-linejoin="round"/>
<path d="M158.748 268.998L116.136 255.475L112.345 245.738L103.688 245.474L87.979 242.58L89.8682 245.738L109.641 259.689L114.519 262.054L159.084 284.685L158.748 268.998Z" fill="white"/>
<mask id="mask0_16_2069" style="mask-type:luminance" maskUnits="userSpaceOnUse" x="87" y="242" width="73" height="43">
<path d="M158.748 268.998L116.136 255.475L112.345 245.738L103.688 245.474L87.979 242.58L89.8682 245.738L109.641 259.689L114.519 262.054L159.084 284.685L158.748 268.998Z" fill="white"/>
</mask>
<g mask="url(#mask0_16_2069)">
<path opacity="0.5" d="M158.748 268.998L116.136 255.475L112.345 245.738L103.688 245.474L87.979 242.58L89.8682 245.738L109.641 259.689L114.519 262.054L159.084 284.685L158.748 268.998Z" fill="#fcd340" stroke="#263238" stroke-width="1.00396" stroke-miterlimit="10"/>
</g>
<path d="M158.748 268.998L116.136 255.475L112.345 245.738L103.688 245.474L87.979 242.58L89.8682 245.738L109.641 259.689L114.519 262.054L159.084 284.685L158.748 268.998Z" stroke="#263238" stroke-width="1.00396" stroke-miterlimit="10"/>
<path d="M112.345 245.738L108.282 243.373L100.168 246.266L101.514 247.839L112.345 245.738Z" fill="white"/>
<mask id="mask1_16_2069" style="mask-type:luminance" maskUnits="userSpaceOnUse" x="100" y="243" width="13" height="5">
<path d="M112.345 245.738L108.282 243.373L100.168 246.266L101.514 247.839L112.345 245.738Z" fill="white"/>
</mask>
<g mask="url(#mask1_16_2069)">
<path opacity="0.5" d="M112.345 245.738L108.282 243.373L100.168 246.266L101.514 247.839L112.345 245.738Z" fill="#fcd340" stroke="#263238" stroke-width="1.00396" stroke-linejoin="round"/>
</g>
<path d="M112.345 245.738L108.282 243.373L100.168 246.266L101.514 247.839L112.345 245.738Z" stroke="#263238" stroke-width="1.00396" stroke-linejoin="round"/>
<path d="M167.793 181.227C167.793 181.227 167.133 186.888 168.776 190.524C170.42 194.16 179.542 206.476 179.542 206.476L162.513 219.747C162.513 219.747 155.448 205.909 154.102 203.67C152.757 201.431 151.139 191.795 155.526 184.888C159.912 177.982 166.227 176.12 167.793 181.227Z" fill="white"/>
<mask id="mask2_16_2069" style="mask-type:luminance" maskUnits="userSpaceOnUse" x="152" y="178" width="28" height="42">
<path d="M167.793 181.227C167.793 181.227 167.133 186.888 168.776 190.524C170.42 194.16 179.542 206.476 179.542 206.476L162.513 219.747C162.513 219.747 155.448 205.909 154.102 203.67C152.757 201.431 151.139 191.795 155.526 184.888C159.912 177.982 166.227 176.12 167.793 181.227Z" fill="white"/>
</mask>
<g mask="url(#mask2_16_2069)">
<g style="mix-blend-mode:multiply" opacity="0.5">
<path d="M159.046 199.418L166.434 214.313L162.501 219.76L155.073 206.866L159.046 199.418Z" fill="#fcd340"/>
</g>
</g>
<path d="M167.793 181.227C167.793 181.227 167.133 186.888 168.776 190.524C170.42 194.16 179.542 206.476 179.542 206.476L162.513 219.747C162.513 219.747 155.448 205.909 154.102 203.67C152.757 201.431 151.139 191.795 155.526 184.888C159.912 177.982 166.227 176.12 167.793 181.227Z" stroke="#263238" stroke-width="1.00396" stroke-miterlimit="10"/>
<path d="M173.073 170.862C172.024 164.572 164.61 151.778 152.847 152.268C145.213 152.595 141.641 154.092 138.329 155.916C135.628 157.463 133.111 159.294 130.823 161.376C125.078 168.081 123.059 169.918 124.172 175.051C124.081 177.098 124.411 179.142 125.143 181.064C126.903 185.63 128.106 188.612 129.633 190.788C129.167 192.914 127.951 198.525 127.886 199.808C127.821 201.091 131.768 200.198 133.761 199.707C137.462 207.759 144.242 213.344 146.351 213.986C150.026 215.105 155.836 209.231 158.916 204.677C161.996 200.123 159.667 195.003 159.68 192.965C159.693 190.927 166.603 186.448 169.165 185.027C171.727 183.605 174.108 177.139 173.073 170.862Z" fill="white"/>
<mask id="mask3_16_2069" style="mask-type:luminance" maskUnits="userSpaceOnUse" x="123" y="152" width="51" height="63">
<path d="M173.073 170.862C172.024 164.572 164.61 151.778 152.847 152.268C145.213 152.595 141.641 154.092 138.329 155.916C135.628 157.463 133.111 159.294 130.823 161.376C125.078 168.081 123.059 169.918 124.172 175.051C124.081 177.098 124.411 179.142 125.143 181.064C126.903 185.63 128.106 188.612 129.633 190.788C129.167 192.914 127.951 198.525 127.886 199.808C127.821 201.091 131.768 200.198 133.761 199.707C137.462 207.759 144.242 213.344 146.351 213.986C150.026 215.105 155.836 209.231 158.916 204.677C161.996 200.123 159.667 195.003 159.68 192.965C159.693 190.927 166.603 186.448 169.165 185.027C171.727 183.605 174.108 177.139 173.073 170.862Z" fill="white"/>
</mask>
<g mask="url(#mask3_16_2069)">
<g style="mix-blend-mode:multiply" opacity="0.5">
<path d="M124.224 175.051C124.133 177.098 124.463 179.142 125.195 181.064C126.954 185.63 128.158 188.612 129.685 190.788C129.219 192.914 128.003 198.525 127.938 199.808C127.873 201.091 131.82 200.198 133.813 199.707C137.513 207.759 144.294 213.344 146.403 213.986C150.078 215.105 155.888 209.231 158.968 204.677C159.737 203.54 160.237 202.25 160.43 200.903C160.262 200.311 160.146 199.947 160.146 199.947C160.146 199.947 158.412 206.425 154.97 205.582C151.527 204.739 146.261 198.034 143.324 195.72C140.386 193.405 141.59 190.361 141.007 186.914C140.425 183.467 131.729 180.435 131.147 178.46C130.565 176.485 132.596 168.308 132.596 168.308C132.596 168.308 135.896 164.031 135.184 165.792C134.681 167.319 134.499 168.929 134.648 170.526C134.797 172.123 135.274 173.674 136.051 175.088C136.597 176.204 137.462 177.143 138.543 177.793C139.624 178.442 140.875 178.774 142.146 178.749L145.303 163.54L138.639 158.181L130.875 161.326C125.078 168.081 123.098 169.918 124.224 175.051Z" fill="#fcd340"/>
</g>
</g>
<path d="M173.073 170.862C172.024 164.572 164.61 151.778 152.847 152.268C145.213 152.595 141.641 154.092 138.329 155.916C135.628 157.463 133.111 159.294 130.823 161.376C125.078 168.081 123.059 169.918 124.172 175.051C124.081 177.098 124.411 179.142 125.143 181.064C126.903 185.63 128.106 188.612 129.633 190.788C129.167 192.914 127.951 198.525 127.886 199.808C127.821 201.091 131.768 200.198 133.761 199.707C137.462 207.759 144.242 213.344 146.351 213.986C150.026 215.105 155.836 209.231 158.916 204.677C161.996 200.123 159.667 195.003 159.68 192.965C159.693 190.927 166.603 186.448 169.165 185.027C171.727 183.605 174.108 177.139 173.073 170.862Z" stroke="#263238" stroke-miterlimit="10"/>
<path d="M131.238 186.989L132.532 190.587C132.532 190.587 135.314 191.48 138.704 187.882" stroke="#263238" stroke-miterlimit="10" stroke-linecap="round"/>
<path d="M140.8 203.796C140.8 203.796 143.88 203.494 145.122 199.292" stroke="#263238" stroke-miterlimit="10" stroke-linecap="round"/>
<path d="M129.076 183.982C129.076 183.982 129.995 181.278 135.546 181.278" stroke="#263238" stroke-miterlimit="10" stroke-linecap="round"/>
<path d="M157.531 147.261C153.498 146.698 149.43 146.395 145.355 146.356C145.355 146.356 133.165 139.525 121.455 146.809C109.744 154.092 115.373 166.849 115.373 170.031C115.373 173.214 111.62 173.227 113.962 177.328C116.305 181.429 124.224 179.164 124.224 179.164C124.308 177.618 124.728 176.106 125.457 174.729C126.187 173.351 127.209 172.141 128.455 171.176C132.674 167.993 136.038 167.301 137.436 168.22C137.436 168.22 136.504 175.051 137.901 177.781C137.901 177.781 142.586 180.058 143.996 180.058C145.407 180.058 143.077 181.982 147.749 183.693C148.6 183.99 149.51 184.092 150.408 183.989C151.306 183.886 152.168 183.583 152.925 183.102C153.611 180.334 155.112 176.17 157.907 177.139C162.009 178.56 165.748 188.373 160.197 191.719C166.874 192.902 174.962 181.416 175.44 170.95C175.919 160.483 164.467 148.444 157.531 147.261Z" fill="#263238"/>
<path d="M137.643 163.729C137.643 163.729 141.085 161.93 145.303 165.779C149.522 169.629 157.726 174.774 168.595 171.943" stroke="white" stroke-width="0.5" stroke-linecap="round" stroke-linejoin="round"/>
<path d="M137.164 160.647C137.164 160.647 139.532 157.049 143.492 157.049C147.451 157.049 156.703 162.446 164.092 162.446" stroke="white" stroke-width="0.5" stroke-linecap="round" stroke-linejoin="round"/>
<path d="M134.472 167.578C134.472 167.578 129.982 162.194 125.764 166.559C121.545 170.924 124.224 175.051 124.224 175.051" stroke="white" stroke-width="0.5" stroke-linecap="round" stroke-linejoin="round"/>
<path d="M116.525 171.176C119.098 168.92 120.697 165.801 121.002 162.446C121.532 156.797 129.465 151.916 134.472 156.546" stroke="white" stroke-width="0.5" stroke-linecap="round" stroke-linejoin="round"/>
<path d="M124.703 150.633C124.703 150.633 132.635 143.186 139.234 152.683" stroke="white" stroke-width="0.5" stroke-linecap="round" stroke-linejoin="round"/>
<path d="M189.26 516.799C189.26 516.799 194.139 524.171 193.595 528.913L193.065 533.656C193.065 533.656 175.169 538.424 171.377 538.424C167.586 538.424 147.516 536.575 147.516 536.575L146.649 533.228C146.588 532.981 146.617 532.721 146.73 532.492C146.843 532.263 147.034 532.079 147.27 531.97L165.166 523.856L170.808 517.856L189.26 516.799Z" fill="white" stroke="#263238" stroke-width="1.00396" stroke-miterlimit="10"/>
<path d="M174.095 534.713C178.947 535.078 188.16 532.197 193.505 530.36L193.129 533.656C193.129 533.656 175.169 538.424 171.377 538.424C167.586 538.424 147.516 536.575 147.516 536.575L146.895 534.185C150.104 534.197 167.676 534.235 174.095 534.713Z" fill="#fcd340" stroke="#263238" stroke-width="1.00396" stroke-miterlimit="10"/>
<path d="M165.192 523.856L139.144 534.876C139.144 534.876 136.918 540.298 139.144 541.38C141.369 542.462 189.894 541.38 189.894 541.38C189.894 541.38 193.246 532.813 187.953 527.064C182.661 521.315 165.192 523.856 165.192 523.856Z" fill="white" stroke="#263238" stroke-width="1.00396" stroke-miterlimit="10"/>
<path d="M189.894 541.38C189.894 541.38 141.369 542.462 139.144 541.38C138.07 540.852 138.031 539.33 138.277 537.883H190.749C190.577 539.072 190.291 540.243 189.894 541.38Z" fill="#fcd340" stroke="#263238" stroke-width="1.00396" stroke-miterlimit="10"/>
<path d="M152.873 332.376C152.873 332.376 146.067 361.7 143.492 380.042C140.917 398.383 139.403 435.13 139.946 439.344C140.49 443.558 167.586 514.17 167.586 514.17L170.29 520.46L189.26 516.774C189.26 516.774 180.591 489.903 177.343 475.147C174.095 460.39 166.991 436.149 166.991 431.934C166.991 427.72 183.813 347.233 185.016 341.95C186.219 336.666 191.68 328.552 191.68 328.552L155.358 327.835L152.873 332.376Z" fill="#fcd340" stroke="#263238" stroke-width="1.00396" stroke-miterlimit="10"/>
<path d="M152.873 332.376C152.873 332.376 148.888 359.159 150.531 377.777C152.174 396.396 155.707 436.035 155.707 441.935C155.707 447.835 165.502 483.072 166.059 494.142C166.926 510.132 165.71 518.044 165.71 518.044L165.127 523.844C165.127 523.844 176.553 525.429 179.051 526.121C181.935 526.843 184.912 527.157 187.889 527.052C187.889 527.052 192.042 509.276 192.042 494.13C192.042 478.983 188.587 447.81 186.866 435.18C185.145 422.55 190.567 373.827 193.647 364.732C196.727 355.637 203.455 336.377 198.926 326.539C194.397 316.701 152.873 332.376 152.873 332.376Z" fill="#fcd340" stroke="#263238" stroke-width="1.00396" stroke-miterlimit="10"/>
<path d="M203.96 321.608L203.546 333.584C203.546 333.584 196.17 335.005 186.233 336.679C178.029 338.062 157.428 336.314 150.492 335.66C149.86 335.605 149.276 335.31 148.866 334.839C148.457 334.368 148.255 333.758 148.305 333.144L148.978 322.325L203.96 321.608Z" fill="#263238"/>
<path d="M175.13 202.224C175.13 202.224 163.484 214.464 159.097 222.075C154.711 229.686 152.977 241.347 151.333 250.531C149.69 259.714 154.141 281.276 152.886 291.177L148.914 322.363C148.914 322.363 148.06 324.476 150.919 326.791C153.779 329.105 167.741 329.948 180.358 330.565C184.964 330.791 198.72 327.91 200.971 327.772C203.689 327.608 203.779 324.25 203.896 321.608C204.439 309.191 206.742 276.093 208.256 261.677C211.375 232.277 194.307 203.897 175.13 202.224Z" fill="white" stroke="#263238" stroke-width="1.00396" stroke-miterlimit="10"/>
<g style="mix-blend-mode:multiply">
<path d="M206.833 278.395C207.351 271.866 207.868 265.941 208.321 261.677C208.45 260.419 208.528 259.161 208.593 257.903L177.653 262.935L151.074 254.129C151.077 259.475 151.388 264.817 152.006 270.13L178.08 277.225L206.833 278.395Z" fill="#fcd340"/>
</g>
<g style="mix-blend-mode:multiply">
<path d="M173.978 203.456C172.218 205.356 168.725 209.218 165.399 213.319L185.042 232.73L191.512 230.214L173.978 203.456Z" fill="#fcd340"/>
</g>
<path d="M175.13 202.224C175.13 202.224 163.484 214.464 159.097 222.075C157.797 224.388 156.743 226.824 155.953 229.346L179.374 203.041C177.991 202.634 176.569 202.36 175.13 202.224Z" fill="#263238"/>
<g style="mix-blend-mode:multiply">
<path d="M152.239 245.574L177.653 253.701L208.515 250.254C208.031 242.78 206.323 235.429 203.456 228.478L178.572 238.177L156.328 228.377C154.509 233.998 153.142 239.748 152.239 245.574Z" fill="#fcd340"/>
</g>
<g style="mix-blend-mode:multiply">
<path d="M195.989 309.191C183.099 311.295 169.873 310.245 157.506 306.134L151.307 304.071L149.379 319.167L156.445 321.092C169.876 324.743 183.914 325.794 197.762 324.187L203.469 323.52C203.766 322.909 203.933 322.245 203.96 321.57C204.116 318.211 204.387 313.33 204.737 307.732L195.989 309.191Z" fill="#fcd340"/>
</g>
<g style="mix-blend-mode:multiply">
<path d="M199.444 288.636C186.554 290.748 173.325 289.693 160.961 285.566L153.067 282.937C153.263 285.678 153.224 288.43 152.951 291.164L152.032 298.423L159.9 300.561C173.326 304.216 187.359 305.272 201.204 303.669L205.086 303.216C205.409 298.184 205.785 292.825 206.186 287.528L199.444 288.636Z" fill="#fcd340"/>
</g>
<path d="M78.0428 235.437L103.063 254.994L104.141 253.69L79.1212 234.133L78.0428 235.437Z" fill="#263238"/>
<path d="M187.177 215.797C187.177 215.797 196.352 221.873 196.559 236.227C196.649 242.517 195.976 248.392 194.488 258.695C193 268.998 183.761 302.549 176.566 306.625C169.372 310.701 158.205 303.002 158.205 303.002L104.193 268.143L91.1365 257.89L84.6665 246.014L86.6981 242.24L102.627 254.116L94.048 246.404L95.7302 244.329L98.8358 246.43L107.894 249.726L109.874 262.306L112.669 264.167L164.338 282.522C164.338 282.522 163.691 255.487 164.17 250.317C164.649 245.146 165.309 232.151 171.002 222.729" fill="white"/>
<mask id="mask4_16_2069" style="mask-type:luminance" maskUnits="userSpaceOnUse" x="84" y="215" width="113" height="93">
<path d="M187.177 215.797C187.177 215.797 196.352 221.873 196.559 236.227C196.649 242.517 195.976 248.392 194.488 258.695C193 268.998 183.761 302.549 176.566 306.625C169.372 310.701 158.205 303.002 158.205 303.002L104.193 268.143L91.1365 257.89L84.6665 246.014L86.6981 242.24L102.627 254.116L94.048 246.404L95.7302 244.329L98.8358 246.43L107.894 249.726L109.874 262.306L112.669 264.167L164.338 282.522C164.338 282.522 163.691 255.487 164.17 250.317C164.649 245.146 165.309 232.151 171.002 222.729" fill="white"/>
</mask>
<g mask="url(#mask4_16_2069)">
<g style="mix-blend-mode:multiply" opacity="0.5">
<path d="M163.976 262.092C163.976 271.426 164.299 282.522 164.299 282.522L112.682 264.243L109.887 262.381L107.907 249.801L98.8487 246.505L95.7561 244.367L94.0739 246.442L102.627 254.116L86.6981 242.24L84.77 245.952L91.24 257.827L104.296 268.143L107.583 270.269L178.947 292.623L163.976 262.092Z" fill="#fcd340"/>
</g>
</g>
<path d="M187.177 215.797C187.177 215.797 196.352 221.873 196.559 236.227C196.649 242.517 195.976 248.392 194.488 258.695C193 268.998 183.761 302.549 176.566 306.625C169.372 310.701 158.205 303.002 158.205 303.002L104.193 268.143L91.1365 257.89L84.6665 246.014L86.6981 242.24L102.627 254.116L94.048 246.404L95.7302 244.329L98.8358 246.43L107.894 249.726L109.874 262.306L112.669 264.167L164.338 282.522C164.338 282.522 163.691 255.487 164.17 250.317C164.649 245.146 165.309 232.151 171.002 222.729" stroke="#263238" stroke-width="1.00396" stroke-miterlimit="10"/>
<path d="M164.338 282.522L184.059 296.36L189.17 287.554C189.17 287.554 192.703 284.849 193.22 282.811C193.738 280.773 193.078 277.464 193.608 275.427C194.139 273.389 196.779 271.476 197.024 266.545C197.27 261.614 197.024 257.5 197.024 257.5C197.024 257.5 201.295 240.429 200.829 233.007C200.363 225.585 193 212.464 187.1 212.174C181.199 211.885 173.525 212.753 167.573 221.509C161.621 230.264 162.837 255.827 161.905 257.425C160.974 259.022 162.268 266.91 162.268 266.91C161.751 267.285 161.321 267.763 161.009 268.311C160.697 268.86 160.508 269.467 160.456 270.093C160.353 272.143 162.63 277.188 162.63 277.188L164.338 282.522Z" fill="white" stroke="#263238" stroke-width="1.00396" stroke-miterlimit="10"/>
<g style="mix-blend-mode:multiply">
<path d="M162.423 250.858C162.464 253.053 162.295 255.247 161.918 257.412C161.09 258.846 162.035 265.325 162.242 266.646C173.334 269.995 185.062 270.855 196.546 269.162C196.792 268.287 196.94 267.388 196.986 266.482C197.244 261.563 196.986 257.437 196.986 257.437C196.986 257.437 197.361 255.915 197.879 253.6C185.986 254.335 174.046 253.412 162.423 250.858Z" fill="#fcd340"/>
</g>
<g style="mix-blend-mode:multiply">
<path d="M166.771 222.905C164.92 226.515 163.885 231.937 163.29 237.435C175.037 241.793 187.702 243.292 200.182 241.8C200.68 238.891 200.901 235.943 200.842 232.994C200.618 230.663 200.051 228.376 199.159 226.201C188.263 226.448 177.378 225.341 166.771 222.905Z" fill="#fcd340"/>
</g>
<path d="M162.63 277.326L164.299 282.522L184.02 296.36L189.131 287.554C189.131 287.554 192.664 284.849 193.181 282.811C193.274 282.457 193.33 282.094 193.349 281.729C182.957 281.555 172.632 280.075 162.63 277.326Z" fill="#263238"/>
<path d="M176.903 525.957C176.903 525.957 177.343 515.063 179.491 499.137C181.639 483.21 176.476 460.592 175.609 456.818C174.742 453.044 176.049 444.665 175.182 441.722C174.315 438.778 170.122 426.223 172.594 411.655C175.065 397.088 177.071 358.58 177.071 358.58C177.071 358.58 170.847 353.662 169.022 347.258C167.198 340.855 168.595 338.842 168.595 338.842" stroke="#263238" stroke-width="1.00396" stroke-miterlimit="10"/>
<path d="M179.788 339.434L177.395 352.315" stroke="#263238" stroke-width="1.00396" stroke-miterlimit="10"/>
</svg>
