<svg width="23" height="31" viewBox="0 0 23 31" fill="none" xmlns="http://www.w3.org/2000/svg">
<path d="M4.47309 11.7669C2.18568 11.7669 0.31543 13.4638 0.31543 15.5396C0.31543 17.5579 2.08384 19.2178 4.28442 19.3081C4.00626 19.8135 3.84868 20.3823 3.84868 20.9832C3.84868 22.9315 5.49642 24.5461 7.59019 24.7371C7.31417 25.2409 7.1579 25.8075 7.1579 26.4059C7.1579 28.4816 9.02815 30.1791 11.3156 30.1791C13.603 30.1791 15.473 28.4816 15.473 26.4059C15.473 25.8132 15.3201 25.2517 15.049 24.7514C17.2443 24.6558 19.0062 22.998 19.0062 20.9832C19.0062 20.3768 18.8457 19.8031 18.5627 19.2943C20.6619 19.1082 22.3154 17.4914 22.3154 15.5396C22.3154 13.4638 20.4455 11.7669 18.158 11.7669C16.7432 11.7669 15.4887 12.4165 14.737 13.4031C13.9852 12.4164 12.7305 11.7669 11.3156 11.7669C9.90067 11.7669 8.64589 12.4164 7.89418 13.4031C7.14244 12.4165 5.88796 11.7669 4.47309 11.7669ZM4.47309 13.1032C5.9647 13.1032 7.1579 14.186 7.1579 15.5396C7.1579 16.8931 5.9647 17.9763 4.47309 17.9762C2.9815 17.9762 1.78798 16.8931 1.78798 15.5396C1.78798 14.186 2.9815 13.1032 4.47309 13.1032ZM11.3156 13.1032C12.8072 13.1032 14.0004 14.186 14.0004 15.5396C14.0004 16.8931 12.8072 17.9762 11.3156 17.9762C9.82397 17.9762 8.63045 16.8931 8.63045 15.5396C8.63045 14.186 9.82397 13.1032 11.3156 13.1032ZM18.158 13.1032C19.6496 13.1032 20.8429 14.186 20.8429 15.5396C20.8429 16.8931 19.6496 17.9762 18.158 17.9762C16.6665 17.9762 15.473 16.8931 15.473 15.5396C15.473 14.186 16.6665 13.1032 18.158 13.1032ZM8.00634 18.5465C9.49793 18.5465 10.6912 19.6296 10.6912 20.9832C10.6912 21.8408 10.2119 22.589 9.4815 23.0229C9.3648 23.0753 9.25124 23.1327 9.14098 23.1946C8.79686 23.3391 8.41289 23.4198 8.00634 23.4198C6.51475 23.4198 5.32123 22.3368 5.32123 20.9832C5.32123 19.6296 6.51475 18.5465 8.00634 18.5465ZM14.8489 18.5465C16.3404 18.5465 17.5337 19.6296 17.5337 20.9832C17.5337 22.3368 16.3404 23.4198 14.8489 23.4198C13.3573 23.4198 12.1637 22.3368 12.1637 20.9832C12.1637 19.6296 13.3573 18.5465 14.8489 18.5465ZM11.3156 23.9695C12.8072 23.9695 14.0004 25.0523 14.0004 26.4059C14.0004 27.7594 12.8072 28.8428 11.3156 28.8428C9.82397 28.8428 8.63045 27.7594 8.63045 26.4059C8.63045 25.5485 9.10978 24.8002 9.83986 24.3665C9.95696 24.3138 10.0709 24.2565 10.1815 24.1945C10.5254 24.0502 10.9093 23.9695 11.3156 23.9695Z" fill="#355FD1"/>
<path d="M17.0441 0.184722C15.0241 0.406797 13.1589 1.43012 12.0037 2.95023C11.7958 3.22392 11.616 3.50901 11.4556 3.80031C11.2657 3.45541 11.0332 3.12931 10.7604 2.83017C9.9862 1.98122 8.91602 1.37509 7.73537 1.11728C7.44022 1.05284 7.14069 1.0107 6.83945 0.990433C5.94573 0.930282 5.04037 1.06398 4.2116 1.38349C4.20249 1.38691 4.19332 1.39016 4.18425 1.39358C4.15635 1.40739 4.12947 1.42284 4.10376 1.4398C4.06823 1.45666 4.03426 1.47611 4.00222 1.49798C3.97445 1.52188 3.94875 1.54771 3.92541 1.57524C3.8987 1.60018 3.8742 1.62698 3.85209 1.65538C3.83375 1.68598 3.81806 1.71785 3.80519 1.75066C3.7895 1.77754 3.77586 1.80534 3.76435 1.8339C3.76183 1.8426 3.75965 1.85151 3.75714 1.86028C3.4548 2.90787 3.5697 4.03318 4.08041 5.01231C4.59548 5.99979 5.4924 6.79971 6.5895 7.24956C7.42183 7.59084 8.34737 7.72338 9.25506 7.63142C9.62223 7.59421 9.98297 7.51997 10.331 7.41242C10.119 8.88668 10.1558 10.3886 10.4394 11.8533C10.723 11.7973 11.0166 11.7661 11.3181 11.7661C11.5249 11.7661 11.7277 11.7816 11.9266 11.8084C11.548 10.0063 11.5836 8.12944 12.0357 6.34185C12.2788 5.38048 12.6418 4.46451 13.2166 3.70813C14.1227 2.51567 15.6372 1.68478 17.2218 1.51055C17.3178 1.49998 17.4106 1.47236 17.4948 1.42925C17.579 1.38615 17.6531 1.3284 17.7127 1.25933C17.7723 1.19026 17.8164 1.11119 17.8424 1.02666C17.8683 0.942134 17.8757 0.853816 17.864 0.766708C17.8405 0.590834 17.741 0.430635 17.5873 0.321345C17.4336 0.212055 17.2385 0.162633 17.0446 0.183922L17.0441 0.184722ZM6.39627 2.31417C6.73195 2.31203 7.06727 2.34604 7.39109 2.41676C8.25458 2.60531 9.05954 3.06117 9.6258 3.68206C10.1751 4.2844 10.512 5.06012 10.5726 5.84311C10.1228 6.09027 9.61128 6.25158 9.09085 6.30431C8.4505 6.36919 7.78243 6.27307 7.19525 6.03231C6.42557 5.71672 5.77195 5.13461 5.41062 4.44184C5.10101 3.84827 4.99712 3.15532 5.11124 2.50341C5.52386 2.38115 5.96035 2.31699 6.39627 2.31417Z" fill="#333333"/>
</svg>
