<svg width="30" height="30" viewBox="0 0 30 30" fill="none" xmlns="http://www.w3.org/2000/svg">
<path d="M24.5123 16.3266C24.7439 19.1044 22.0017 23.6897 18.7185 24.36C15.5957 24.9984 12.306 23.3597 11.1979 20.0569C12.5442 22.4269 15.7185 23.3634 17.8692 21.315C14.121 22.5862 11.392 18.4181 11.031 15.2925C10.9523 15.4866 10.8839 15.6787 10.8257 15.8691C8.39104 19.4456 9.2001 24.3431 12.7101 26.9362C16.3064 29.5931 21.3801 28.8319 24.0379 25.2356C26.0226 22.5497 26.0985 19.0387 24.5123 16.3266ZM15.8282 13.0941C17.5485 12.3253 18.0492 10.2234 16.0823 8.95406C12.4785 6.62812 10.6973 13.7887 6.43448 12.8681C9.7401 16.1166 11.4079 11.16 14.4773 10.6294C15.5714 10.44 16.5998 11.6334 15.8282 13.0941ZM14.977 7.18312C17.6151 7.99125 19.7235 10.2159 19.9992 12.7791C20.1004 13.7241 20.0179 14.6259 19.6467 15.3712C21.3754 14.7975 22.4939 13.4644 22.3129 11.7816C22.0579 9.41156 19.3664 7.30406 16.3354 7.08656C15.8395 7.05094 15.4232 7.11937 14.977 7.18312ZM18.6642 12.7378C18.6426 12.4425 18.5601 12.1884 18.4785 11.9166C18.1842 13.4494 16.9092 14.5734 15.247 14.5744C14.6339 14.5753 14.0329 14.4675 13.5089 14.1966C14.0423 15.2709 15.021 16.0284 16.1123 16.0275C17.6498 16.0256 18.7945 14.5444 18.6642 12.7378ZM10.3101 9.99469C7.21635 10.5675 2.43041 9.18281 2.54479 5.22562C0.51229 9.29531 5.88041 13.6069 10.3101 9.99469ZM18.4101 6.18562C15.2432 1.23562 11.6507 6.45656 7.63635 6.00937C6.20573 5.85 5.27666 4.09781 6.68666 2.65687C4.2951 2.95781 3.03041 5.24344 5.11635 7.41187C8.9376 11.385 13.3382 3.62719 18.411 6.18469L18.4101 6.18562ZM17.7342 3.49594C18.4532 3.90187 19.0767 4.39219 19.491 4.97156C19.6589 3.69844 19.072 2.40187 17.7932 1.67906C15.9923 0.660936 13.5585 1.17 12.3782 2.80219C12.1851 3.06937 12.0942 3.34125 11.9892 3.62812C13.4648 2.51156 15.786 2.39531 17.7342 3.49594ZM12.8282 16.3453C13.8107 19.9941 17.7604 20.7253 20.5626 19.1531C20.166 20.5031 19.1798 21.9675 17.362 23.1131C21.5817 22.3406 23.9685 17.6241 23.3142 13.6134C21.6135 17.5322 16.5173 18.2109 12.8282 16.3453Z" fill="black" stroke="black" stroke-width="0.001"/>
</svg>
