<svg width="30" height="30" viewBox="0 0 30 30" fill="none" xmlns="http://www.w3.org/2000/svg">
<path d="M16.1286 15.3403C16.738 15.3403 17.5133 15.1613 18.2127 14.4619C19.6124 13.0622 18.9261 11.3578 18.8961 11.2866C18.8624 11.2041 18.7977 11.1384 18.7152 11.1047C18.6421 11.0756 16.9377 10.3875 15.5389 11.7881C15.2952 12.0319 15.133 12.2841 15.0008 12.5353C14.8696 12.2841 14.7064 12.0319 14.4627 11.7881C13.063 10.3884 11.3577 11.0756 11.2874 11.1047C11.2049 11.1394 11.1393 11.2041 11.1055 11.2866C11.0755 11.3588 10.3893 13.0622 11.7889 14.4619C12.4883 15.1613 13.2627 15.3403 13.8721 15.3403C14.1974 15.3403 14.4693 15.2897 14.6633 15.24V27.7875H5.96238V23.6784C6.15645 23.7281 6.42832 23.7788 6.7527 23.7788C7.36207 23.7788 8.13832 23.5997 8.83676 22.9003C10.2364 21.5006 9.55019 19.7953 9.52019 19.7231C9.48551 19.6406 9.42082 19.5759 9.33832 19.5422C9.26707 19.5113 7.56176 18.8259 6.16301 20.2256C5.91926 20.4684 5.75613 20.7206 5.62488 20.9728C5.49363 20.7206 5.33051 20.4684 5.08676 20.2256C3.68801 18.8269 1.9827 19.5113 1.91145 19.5422C1.82895 19.5759 1.76332 19.6406 1.72957 19.7231C1.69957 19.7953 1.01332 21.5006 2.41301 22.9003C3.11238 23.5988 3.8877 23.7788 4.49707 23.7788C4.82145 23.7788 5.09332 23.7281 5.28738 23.6784V27.7875H2.81238V28.4634H17.8124V27.7875H15.3374V21.7031L17.1139 19.9266L16.6358 19.4484L15.3374 20.7478V15.24C15.5314 15.2897 15.8033 15.3403 16.1286 15.3403ZM5.19363 23.0053C4.82332 23.1094 3.77238 23.3034 2.8902 22.4222C2.0052 21.5381 2.19926 20.4919 2.30707 20.1197C2.67738 20.0156 3.72832 19.8216 4.61051 20.7028C5.14301 21.2353 5.28176 21.8231 5.28738 22.2909C5.28738 22.3163 5.28832 22.3388 5.28926 22.3631C5.28363 22.6397 5.23301 22.8684 5.19363 23.0053ZM5.96332 22.2909C5.96801 21.8241 6.1077 21.2353 6.6402 20.7028C7.52613 19.8169 8.57238 20.0128 8.94363 20.1188C9.05238 20.49 9.24645 21.5372 8.36051 22.4222C7.47457 23.3081 6.42832 23.1122 6.05707 23.0063C6.01676 22.8694 5.96613 22.6406 5.96145 22.3631C5.96145 22.3388 5.96332 22.3163 5.96332 22.2909ZM15.3383 13.8534C15.343 13.3866 15.4827 12.7978 16.0152 12.2653C16.8993 11.3803 17.9474 11.5753 18.3177 11.6822C18.4227 12.0516 18.6158 13.1044 17.7346 13.9856C16.8496 14.8706 15.8024 14.6775 15.4321 14.5688C15.3918 14.4319 15.3411 14.2041 15.3364 13.9266C15.3364 13.9003 15.3383 13.8788 15.3383 13.8534ZM12.2652 13.9847C11.3802 13.0988 11.5743 12.0525 11.6821 11.6813C12.0533 11.5725 13.0996 11.3784 13.9855 12.2644C14.518 12.7969 14.6568 13.3856 14.6624 13.8525C14.6624 13.8778 14.6643 13.9003 14.6643 13.9247C14.6596 14.2022 14.608 14.4309 14.5686 14.5669C14.1974 14.6766 13.1502 14.8706 12.2652 13.9847ZM25.5036 6.90282C26.113 6.90282 26.8883 6.72376 27.5877 6.02438C28.9874 4.62469 28.3011 2.92032 28.2711 2.84907C28.2374 2.76657 28.1727 2.70094 28.0902 2.66719C28.0161 2.63813 26.3127 1.95001 24.913 3.35063C24.6693 3.59344 24.5061 3.84563 24.3749 4.09688C24.2436 3.84563 24.0805 3.59344 23.8377 3.35063C22.4361 1.95001 20.7327 2.63813 20.6605 2.66719C20.578 2.70188 20.5133 2.76657 20.4796 2.84907C20.4496 2.92126 19.7624 4.62563 21.163 6.02438C21.8624 6.72376 22.6368 6.90282 23.2471 6.90282C23.5724 6.90282 23.8433 6.85219 24.0383 6.80251V16.9969L22.7399 15.6994L22.2618 16.1766L24.0383 17.9531V27.7875H21.5624V28.4634H27.1874V27.7875H24.7124V13.2647L26.4889 11.4881L26.0108 11.0109L24.7124 12.3094V6.80251C24.9074 6.85219 25.1793 6.90282 25.5036 6.90282ZM24.7152 5.43188C24.718 4.96126 24.8539 4.36313 25.3902 3.82688C26.2752 2.94188 27.3233 3.13688 27.6927 3.24376C27.7977 3.61313 27.9908 4.66594 27.1096 5.54719C26.2255 6.43219 25.1783 6.23813 24.8071 6.13032C24.7677 5.99157 24.7152 5.75626 24.7133 5.46938C24.7133 5.45626 24.7152 5.44594 24.7152 5.43188ZM21.6402 5.54719C20.7543 4.66126 20.9483 3.61501 21.0561 3.24376C21.4293 3.13594 22.4746 2.94094 23.3596 3.82688C23.8902 4.35657 24.0299 4.94157 24.0364 5.40751C24.0364 5.43751 24.0374 5.46469 24.0383 5.49469C24.0327 5.76844 23.983 5.99438 23.9436 6.13032C23.5724 6.23907 22.5261 6.43407 21.6402 5.54719Z" fill="black"/>
</svg>
