<svg width="69" height="74" viewBox="0 0 69 74" fill="none" xmlns="http://www.w3.org/2000/svg">
<path d="M21 71H12C7.02943 71 3 67.0375 3 62.1492V30.8169C3 28.2329 4.14809 25.7783 6.14289 24.0968L28.6428 5.13076C32.0133 2.28975 36.9867 2.28975 40.3572 5.13076L62.8572 24.0968C64.852 25.7783 66 28.2329 66 30.8169V62.1492C66 67.0375 61.9707 71 57 71H48M21 71V44.4476C21 42.0035 23.0147 40.0222 25.5 40.0222H43.5C45.9853 40.0222 48 42.0035 48 44.4476V71M21 71H48" stroke="#03CE91" stroke-width="5" stroke-linecap="round" stroke-linejoin="round"/>
</svg>
