<!DOCTYPE svg PUBLIC "-//W3C//DTD SVG 1.1//EN" "http://www.w3.org/Graphics/SVG/1.1/DTD/svg11.dtd">
<!-- Uploaded to: SVG Repo, www.svgrepo.com, Transformed by: SVG Repo Mixer Tools -->
<svg fill="#000000" version="1.1" id="Capa_1" xmlns="http://www.w3.org/2000/svg" xmlns:xlink="http://www.w3.org/1999/xlink" viewBox="0 0 60 60" xml:space="preserve" width="84px" height="84px">
<g id="SVGRepo_bgCarrier" stroke-width="0"/>
<g id="SVGRepo_tracerCarrier" stroke-linecap="round" stroke-linejoin="round"/>
<g id="SVGRepo_iconCarrier"> <g> <g> <path d="M22,22v2h12c0.6,0,1-0.4,1-1v-5c0-0.6-0.4-1-1-1H7c-3.9,0-7,3.1-7,7v14h2V24c0-2.8,2.2-5,5-5h1.3l2.8,7.4 c0.1,0.3,0.5,0.6,0.9,0.6s0.8-0.3,1.1-0.6l2.8-7.4H33v3H22z M12.1,23.2L10.5,19h3.2L12.1,23.2z"/> <path d="M17,58h-4V39h-2v19H7V25H5v34c0,0.6,0.4,1,1,1h6h6c0.6,0,1-0.4,1-1V25h-2V58z"/> <rect x="11" y="29" width="2" height="2"/> <rect x="11" y="33" width="2" height="2"/> <path d="M11,16h2c2.8,0,5-2.2,5-5V8c0-2.8-2.2-5-5-5h-2C8.2,3,6,5.2,6,8v3C6,13.8,8.2,16,11,16z M8,8c0-1.7,1.3-3,3-3h2 c1.7,0,3,1.3,3,3v3c0,1.7-1.3,3-3,3h-2c-1.7,0-3-1.3-3-3V8z"/> <path d="M59,0H21v2h37v39H24h-1v1v1v4c0,0.6,0.4,1,1,1h35c0.6,0,1-0.4,1-1v-5V1C60,0.4,59.6,0,59,0z M58,46H25v-3h33V46z"/> <rect x="39" y="17" width="9" height="2"/> <rect x="39" y="21" width="14" height="2"/> <rect x="39" y="25" width="14" height="2"/> <rect x="39" y="29" width="14" height="2"/> <rect x="39" y="33" width="2" height="2"/> <rect x="43" y="33" width="2" height="2"/> <rect x="47" y="33" width="2" height="2"/> <rect x="51" y="33" width="2" height="2"/> <rect x="23" y="33" width="2" height="2"/> <rect x="27" y="33" width="2" height="2"/> <rect x="31" y="33" width="2" height="2"/> <rect x="35" y="33" width="2" height="2"/> <rect x="23" y="29" width="2" height="2"/> <rect x="27" y="29" width="2" height="2"/> <rect x="31" y="29" width="2" height="2"/> <rect x="35" y="29" width="2" height="2"/> <rect x="23" y="25" width="2" height="2"/> <rect x="27" y="25" width="2" height="2"/> <rect x="31" y="25" width="2" height="2"/> <rect x="35" y="25" width="2" height="2"/> <rect x="23" y="37" width="2" height="2"/> <rect x="27" y="37" width="2" height="2"/> <rect x="31" y="37" width="2" height="2"/> <rect x="35" y="37" width="2" height="2"/> <rect x="39" y="37" width="2" height="2"/> <rect x="43" y="37" width="2" height="2"/> <rect x="47" y="37" width="2" height="2"/> <rect x="51" y="37" width="2" height="2"/> <rect x="21" y="6" width="9" height="2"/> <rect x="21" y="11" width="17" height="2"/> <rect x="32" y="6" width="4" height="2"/> <path d="M53,9c0-2.2-1.8-4-4-4s-4,1.8-4,4s1.8,4,4,4S53,11.2,53,9z M47,9c0-1.1,0.9-2,2-2s2,0.9,2,2s-0.9,2-2,2S47,10.1,47,9z"/> </g> </g> </g>
</svg>