<svg width="30" height="30" viewBox="0 0 45 45" fill="none" xmlns="http://www.w3.org/2000/svg">
<path fill-rule="evenodd" clip-rule="evenodd" d="M22.5 9.84521C15.5102 9.84521 9.84375 15.5117 9.84375 22.5015C9.84375 29.4912 15.5102 35.1577 22.5 35.1577C29.4898 35.1577 35.1562 29.4912 35.1562 22.5015C35.1562 15.5117 29.4898 9.84521 22.5 9.84521ZM22.5 33.7515C16.2865 33.7515 11.25 28.7143 11.25 22.5015C11.25 16.2887 16.2865 11.2515 22.5 11.2515C28.7135 11.2515 33.75 16.2887 33.75 22.5015C33.75 28.7143 28.7135 33.7515 22.5 33.7515Z" fill="#394240"/>
<path fill-rule="evenodd" clip-rule="evenodd" d="M44.2969 21.7969H37.2656C36.8768 21.7969 36.5625 22.1112 36.5625 22.5C36.5625 22.8888 36.8768 23.2031 37.2656 23.2031H44.2969C44.6857 23.2031 45 22.8888 45 22.5C45 22.1112 44.6857 21.7969 44.2969 21.7969Z" fill="#394240"/>
<path fill-rule="evenodd" clip-rule="evenodd" d="M8.05569 25.6423L5.33952 26.37C4.96405 26.472 4.74116 26.8573 4.84241 27.2328C4.94296 27.6075 5.32757 27.8304 5.70374 27.7285L8.41991 27.0007C8.79468 26.9002 9.01757 26.5163 8.91702 26.1394C8.81647 25.7646 8.43046 25.5417 8.05569 25.6423Z" fill="#394240"/>
<path fill-rule="evenodd" clip-rule="evenodd" d="M34.6781 15.4688C34.8729 15.8056 35.3025 15.9209 35.6393 15.7254L41.7284 12.2098C42.0652 12.0164 42.1805 11.5861 41.985 11.25C41.7916 10.9132 41.3613 10.7979 41.0252 10.9934L34.9362 14.509C34.5994 14.7038 34.4848 15.132 34.6781 15.4688Z" fill="#394240"/>
<path fill-rule="evenodd" clip-rule="evenodd" d="M12.5564 32.4442C12.2822 32.1693 11.8371 32.1707 11.5622 32.4442L9.57376 34.4326C9.29884 34.7075 9.29954 35.1533 9.57446 35.4268C9.84868 35.7018 10.2931 35.7018 10.568 35.4268L12.5564 33.4384C12.8313 33.1649 12.8313 32.7184 12.5564 32.4442Z" fill="#394240"/>
<path fill-rule="evenodd" clip-rule="evenodd" d="M29.5313 10.322C29.8681 10.5153 30.2977 10.4014 30.4924 10.0639L34.0081 3.97487C34.2028 3.63807 34.0875 3.20776 33.75 3.0144C33.4139 2.81964 32.985 2.93495 32.7903 3.27104L29.2753 9.36151C29.0799 9.69831 29.1952 10.1265 29.5313 10.322Z" fill="#394240"/>
<path fill-rule="evenodd" clip-rule="evenodd" d="M18.8607 36.0829C18.4866 35.9823 18.1013 36.2066 17.9993 36.58L17.2716 39.2962C17.171 39.6723 17.3953 40.0569 17.7701 40.1575C18.1449 40.2594 18.5295 40.0365 18.63 39.6604L19.3578 36.9442C19.4597 36.5708 19.2368 36.1848 18.8607 36.0829Z" fill="#394240"/>
<path fill-rule="evenodd" clip-rule="evenodd" d="M22.5 8.4375C22.8896 8.4375 23.2039 8.1232 23.2046 7.73438V0.703125C23.2046 0.314297 22.8903 0 22.5 0C22.1126 0 21.7983 0.314297 21.7976 0.703125L21.7983 7.73438C21.7983 8.1232 22.1126 8.4375 22.5 8.4375Z" fill="#394240"/>
<path fill-rule="evenodd" clip-rule="evenodd" d="M27.0014 36.5801C26.9023 36.2053 26.517 35.9824 26.1401 36.083C25.7653 36.1835 25.5438 36.5688 25.643 36.9443L26.3707 39.6605C26.472 40.0366 26.858 40.2581 27.2334 40.1576C27.6089 40.057 27.8304 39.6731 27.7291 39.2962L27.0014 36.5801Z" fill="#394240"/>
<path fill-rule="evenodd" clip-rule="evenodd" d="M14.5104 10.0632C14.7038 10.4 15.1341 10.5153 15.4688 10.3213C15.8063 10.1265 15.9223 9.69761 15.7275 9.36011L12.2119 3.27104C12.0178 2.93495 11.5875 2.81964 11.25 3.0144C10.9146 3.20776 10.7993 3.63807 10.9934 3.97417L14.5104 10.0632Z" fill="#394240"/>
<path fill-rule="evenodd" clip-rule="evenodd" d="M33.4392 32.4429C33.1664 32.1694 32.7207 32.1694 32.445 32.4429C32.1701 32.7179 32.1722 33.1636 32.445 33.4371L34.4335 35.4256C34.7091 35.7019 35.1542 35.6991 35.4284 35.4256C35.7033 35.1507 35.7033 34.7077 35.4277 34.4314L33.4392 32.4429Z" fill="#394240"/>
<path fill-rule="evenodd" clip-rule="evenodd" d="M3.27231 12.2098L9.36278 15.724C9.69817 15.9188 10.1278 15.8034 10.3211 15.4688C10.5159 15.1313 10.402 14.7023 10.0652 14.5076L3.97544 10.992C3.63935 10.7965 3.20903 10.9125 3.01427 11.25C2.82161 11.5854 2.93622 12.015 3.27231 12.2098Z" fill="#394240"/>
<path fill-rule="evenodd" clip-rule="evenodd" d="M36.5815 27.0001L39.2977 27.7278C39.6739 27.8298 40.0585 27.6041 40.159 27.2293C40.2603 26.8545 40.0381 26.4699 39.6619 26.3694L36.9457 25.6417C36.5724 25.5397 36.1856 25.7626 36.0844 26.1388C35.9831 26.5142 36.2081 26.8988 36.5815 27.0001Z" fill="#394240"/>
<path fill-rule="evenodd" clip-rule="evenodd" d="M8.4375 22.4999C8.4382 22.1097 8.12461 21.7968 7.73578 21.7954L0.703125 21.7968C0.315 21.7968 0 22.1097 0 22.4999C0.000703125 22.8874 0.315 23.2031 0.703828 23.2031L7.73578 23.2017C8.1232 23.2017 8.4382 22.8874 8.4375 22.4999Z" fill="#394240"/>
<path fill-rule="evenodd" clip-rule="evenodd" d="M36.9457 19.3564L39.6619 18.6287C40.038 18.5281 40.2595 18.1414 40.1583 17.7659C40.0584 17.3926 39.6745 17.1697 39.2977 17.2702L36.5815 17.998C36.2067 18.0971 35.9838 18.4838 36.0844 18.8593C36.1835 19.2341 36.5709 19.4555 36.9457 19.3564Z" fill="#394240"/>
<path d="M22.5 33.75C28.7132 33.75 33.75 28.7132 33.75 22.5C33.75 16.2868 28.7132 11.25 22.5 11.25C16.2868 11.25 11.25 16.2868 11.25 22.5C11.25 28.7132 16.2868 33.75 22.5 33.75Z" fill="#F9EBB2"/>
<path fill-rule="evenodd" clip-rule="evenodd" d="M10.3219 29.5312C10.1285 29.1937 9.6989 29.0777 9.3621 29.2717L3.27234 32.7888C2.93624 32.9835 2.81952 33.4124 3.01429 33.7499C3.20906 34.0853 3.63937 34.2006 3.97546 34.0066L10.0645 30.4896C10.3999 30.2962 10.5166 29.868 10.3219 29.5312Z" fill="#394240"/>
<path fill-rule="evenodd" clip-rule="evenodd" d="M32.445 12.5543C32.7185 12.8307 33.1636 12.8278 33.4392 12.5543L35.4277 10.5659C35.7033 10.291 35.7019 9.84659 35.4263 9.57167C35.1535 9.29675 34.7084 9.29675 34.4335 9.57167L32.445 11.5601C32.1694 11.8336 32.1708 12.2801 32.445 12.5543Z" fill="#394240"/>
<path fill-rule="evenodd" clip-rule="evenodd" d="M15.4687 34.678C15.1319 34.4833 14.7037 34.5986 14.509 34.9333L10.9933 41.0251C10.8 41.3605 10.9125 41.7901 11.25 41.9849C11.5868 42.1769 12.0164 42.0615 12.2111 41.7269L15.7254 35.6364C15.9194 35.3017 15.8062 34.8721 15.4687 34.678Z" fill="#394240"/>
<path fill-rule="evenodd" clip-rule="evenodd" d="M26.1408 8.91572C26.5142 9.01768 26.8988 8.79197 27.0021 8.41861L27.7299 5.70244C27.8304 5.32627 27.6061 4.94025 27.2313 4.84111C26.858 4.73916 26.472 4.96205 26.3714 5.33822L25.6437 8.05439C25.5403 8.42775 25.766 8.81377 26.1408 8.91572Z" fill="#394240"/>
<path fill-rule="evenodd" clip-rule="evenodd" d="M22.5 36.5625C22.1112 36.5611 21.7983 36.8754 21.7969 37.2642L21.7983 44.2983C21.7983 44.6843 22.1098 45 22.5 45C22.8888 45 23.2031 44.6843 23.2038 44.2969L23.2017 37.2642C23.2017 36.8768 22.8902 36.5625 22.5 36.5625Z" fill="#394240"/>
<path fill-rule="evenodd" clip-rule="evenodd" d="M18 8.41861C18.0977 8.79338 18.4858 9.01627 18.8613 8.91572C19.2354 8.81658 19.4561 8.42986 19.3584 8.05439L18.6307 5.33822C18.5287 4.96205 18.1434 4.73916 17.7679 4.84111C17.3946 4.94166 17.1703 5.32557 17.2722 5.70244L18 8.41861Z" fill="#394240"/>
<path fill-rule="evenodd" clip-rule="evenodd" d="M30.4896 34.9355C30.2963 34.6001 29.8688 34.4834 29.5313 34.6781C29.1945 34.8715 29.0806 35.3004 29.2732 35.6379L32.7916 41.727C32.985 42.0638 33.4125 42.1805 33.75 41.985C34.0868 41.7902 34.2014 41.3599 34.0081 41.0238L30.4896 34.9355Z" fill="#394240"/>
<path fill-rule="evenodd" clip-rule="evenodd" d="M11.5615 12.5544C11.8336 12.8321 12.2808 12.8293 12.5557 12.5544C12.8306 12.2822 12.8278 11.8372 12.5557 11.5601L10.5672 9.5717C10.2909 9.29678 9.84653 9.29818 9.57231 9.57311C9.2981 9.84662 9.29669 10.291 9.57302 10.5659L11.5615 12.5544Z" fill="#394240"/>
<path fill-rule="evenodd" clip-rule="evenodd" d="M41.729 32.7888L35.6379 29.2745C35.3018 29.0812 34.8736 29.1937 34.6795 29.5326C34.484 29.868 34.6008 30.2962 34.9354 30.4909L41.0273 34.0066C41.3627 34.1999 41.7909 34.0874 41.9857 33.7499C42.179 33.4124 42.0637 32.9835 41.729 32.7888Z" fill="#394240"/>
<path fill-rule="evenodd" clip-rule="evenodd" d="M8.41924 17.9986L5.70237 17.2701C5.32549 17.1696 4.94088 17.3939 4.84104 17.7686C4.73979 18.142 4.96127 18.528 5.33815 18.63L8.05432 19.3563C8.42768 19.459 8.8144 19.234 8.91565 18.8592C9.0176 18.4872 8.7926 18.1026 8.41924 17.9986Z" fill="#394240"/>
<path fill-rule="evenodd" clip-rule="evenodd" d="M22.5 14.064C22.1112 14.064 21.7969 14.3783 21.7969 14.7671C21.7969 15.1559 22.1112 15.4702 22.5 15.4702C26.3827 15.4702 29.5312 18.6181 29.5312 22.5015C29.5312 22.8903 29.8455 23.2046 30.2344 23.2046C30.6232 23.2046 30.9375 22.8903 30.9375 22.5015C30.9375 17.8419 27.1596 14.064 22.5 14.064Z" fill="#394240"/>
</svg>
