<svg width="54" height="45" viewBox="0 0 54 45" fill="none" xmlns="http://www.w3.org/2000/svg">
<path d="M35.291 33.4561H2.12109C1.35352 33.4561 0.720703 32.7769 0.720703 31.939C0.720703 31.1074 1.34766 30.4219 2.12109 30.4219H35.291C36.0586 30.4219 36.6914 31.1011 36.6914 31.939C36.6914 32.7769 36.0586 33.4561 35.291 33.4561ZM51.8789 39.1372H18.709C17.9414 39.1372 17.3086 38.458 17.3086 37.6201C17.3086 36.7886 17.9355 36.103 18.709 36.103H51.8789C52.6465 36.103 53.2793 36.7822 53.2793 37.6201C53.2734 38.4517 52.6465 39.1372 51.8789 39.1372ZM39.3516 44.812H6.1875C5.41992 44.812 4.78711 44.1328 4.78711 43.2949C4.78711 42.4634 5.41406 41.7778 6.1875 41.7778H39.3574C40.125 41.7778 40.7578 42.457 40.7578 43.2949C40.752 44.1328 40.125 44.812 39.3516 44.812Z" fill="#1A1A1A"/>
<path d="M27.0879 9.16357C26.3027 9.16357 25.6582 8.46533 25.6582 7.61475V1.73682C25.6582 0.88623 26.3027 0.187988 27.0879 0.187988C27.873 0.187988 28.5176 0.88623 28.5176 1.73682V7.61475C28.5176 8.46533 27.8789 9.16357 27.0879 9.16357ZM43.4766 26.918C43.4766 27.7686 44.1211 28.4668 44.9062 28.4668H50.332C51.1172 28.4668 51.7617 27.7686 51.7617 26.918C51.7617 26.0674 51.1172 25.3691 50.332 25.3691H44.9062C44.1211 25.3691 43.4766 26.0674 43.4766 26.918ZM10.6816 26.918C10.6816 27.7686 10.0371 28.4668 9.25195 28.4668H3.82617C3.04102 28.4668 2.39648 27.7686 2.39648 26.918C2.39648 26.0674 3.04102 25.3691 3.82617 25.3691H9.25195C10.0371 25.3691 10.6816 26.0674 10.6816 26.918ZM38.8066 14.4258C38.25 13.8228 38.25 12.8389 38.8066 12.2358L41.959 8.8208C42.5156 8.21777 43.4238 8.21777 43.9805 8.8208C44.5371 9.42383 44.5371 10.4077 43.9805 11.0107L40.8281 14.4258C40.2715 15.0288 39.3633 15.0288 38.8066 14.4258ZM15.3574 14.4258C15.9141 13.8228 15.9141 12.8389 15.3574 12.2358L12.2051 8.8208C11.6484 8.21777 10.7402 8.21777 10.1836 8.8208C9.62695 9.42383 9.62695 10.4077 10.1836 11.0107L13.3359 14.4258C13.8926 15.0288 14.8008 15.0288 15.3574 14.4258Z" fill="#1A1A1A"/>
<path d="M38.9883 29.7236C39.1289 28.9238 39.2051 28.0986 39.2051 27.2607C39.2051 20.0308 33.7969 14.1719 27.123 14.1719C20.4492 14.1719 15.041 20.0308 15.041 27.2607C15.041 28.105 15.1172 28.9302 15.2578 29.7236H38.9883Z" fill="#FBE577"/>
<path d="M18.9609 29.7236C17.4961 27.7114 16.4121 25.4072 15.7383 22.8809C15.293 24.252 15.0469 25.7246 15.0469 27.2544C15.0469 28.0986 15.123 28.9238 15.2637 29.7173H18.9609V29.7236Z" fill="#FBE577"/>
<path d="M37.8867 26.9751C37.8867 27.9209 37.7812 28.8413 37.582 29.7236H40.1133C40.2715 28.835 40.3594 27.9145 40.3594 26.9751C40.3594 26.1245 40.2891 25.2676 40.1543 24.436C40.0371 23.7061 39.3926 23.2236 38.7188 23.3506C38.0449 23.4775 37.5996 24.1758 37.7168 24.9058C37.8281 25.585 37.8867 26.2769 37.8867 26.9751ZM16.4941 29.7236C16.3008 28.8413 16.1895 27.9209 16.1895 26.9751C16.1895 20.4941 21.0527 15.2256 27.0352 15.2256C28.3652 15.2256 29.6602 15.4858 30.8906 15.9873C31.5293 16.2476 32.2441 15.9048 32.4844 15.2129C32.7246 14.521 32.4082 13.7466 31.7695 13.4863C30.2578 12.8643 28.6641 12.5469 27.0352 12.5469C19.6875 12.5469 13.7168 19.0215 13.7168 26.9751C13.7168 27.9145 13.8047 28.835 13.9629 29.7236H16.4941Z" fill="#1A1A1A"/>
</svg>
