<svg width="70" height="70" viewBox="0 0 70 70" fill="none" xmlns="http://www.w3.org/2000/svg">
<path d="M40.1012 1.44372C38.563 0.511613 36.7987 0.0187988 35 0.0187988C33.2013 0.0187988 31.4371 0.511613 29.8988 1.44372L6.93 15.365C5.48259 16.242 4.28574 17.4774 3.45501 18.9519C2.62428 20.4263 2.18773 22.0901 2.1875 23.7825V46.2175C2.18773 47.9099 2.62428 49.5736 3.45501 51.0481C4.28574 52.5225 5.48259 53.7579 6.93 54.635L29.8988 68.5562C31.4371 69.4883 33.2013 69.9811 35 69.9811C36.7987 69.9811 38.563 69.4883 40.1012 68.5562L63.07 54.635C64.5174 53.7579 65.7143 52.5225 66.545 51.0481C67.3757 49.5736 67.8123 47.9099 67.8125 46.2175V23.7825C67.8123 22.0901 67.3757 20.4263 66.545 18.9519C65.7143 17.4774 64.5174 16.242 63.07 15.365L40.1012 1.44372Z" fill="#4EDA9F"/>
<path d="M34.9997 42.2917C39.0269 42.2917 42.2913 39.0272 42.2913 35C42.2913 30.9729 39.0269 27.7084 34.9997 27.7084C30.9725 27.7084 27.708 30.9729 27.708 35C27.708 39.0272 30.9725 42.2917 34.9997 42.2917Z" stroke="#292D32" stroke-width="4" stroke-miterlimit="10" stroke-linecap="round" stroke-linejoin="round"/>
<path d="M10.6943 37.1387V32.8609C10.6943 30.3331 12.7603 28.2429 15.3124 28.2429C19.7117 28.2429 21.5103 25.1318 19.2985 21.3159C18.0346 19.1284 18.7881 16.2846 20.9999 15.0207L25.2048 12.6145C27.1249 11.4721 29.6041 12.1527 30.7464 14.0728L31.0138 14.5346C33.2013 18.3506 36.7985 18.3506 39.0103 14.5346L39.2777 14.0728C40.42 12.1527 42.8992 11.4721 44.8193 12.6145L49.0242 15.0207C51.236 16.2846 51.9895 19.1284 50.7256 21.3159C48.5138 25.1318 50.3124 28.2429 54.7117 28.2429C57.2395 28.2429 59.3298 30.3088 59.3298 32.8609V37.1387C59.3298 39.6664 57.2638 41.7567 54.7117 41.7567C50.3124 41.7567 48.5138 44.8678 50.7256 48.6838C51.9895 50.8956 51.236 53.7151 49.0242 54.9789L44.8193 57.3852C42.8992 58.5276 40.42 57.847 39.2777 55.9269L39.0103 55.4651C36.8228 51.6491 33.2256 51.6491 31.0138 55.4651L30.7464 55.9269C29.6041 57.847 27.1249 58.5276 25.2048 57.3852L20.9999 54.9789C18.7881 53.7151 18.0346 50.8713 19.2985 48.6838C21.5103 44.8678 19.7117 41.7567 15.3124 41.7567C12.7603 41.7567 10.6943 39.6664 10.6943 37.1387Z" stroke="#292D32" stroke-width="4" stroke-miterlimit="10" stroke-linecap="round" stroke-linejoin="round"/>
</svg>
