<svg width="30" height="30" viewBox="0 0 17 52" fill="none" xmlns="http://www.w3.org/2000/svg">
<path d="M11.4453 37.4766C11.4746 37.3066 11.498 37.1367 11.498 36.9609V18.5215H4.85938V36.9551C4.85938 37.1309 4.88281 37.3008 4.91211 37.4707C2.90234 38.6133 1.54297 40.7695 1.54297 43.2422C1.54297 46.9102 4.51367 49.8809 8.18164 49.8809C11.8496 49.8809 14.8203 46.9102 14.8203 43.2422C14.8145 40.7695 13.4551 38.6133 11.4453 37.4766Z" fill="#F59558" stroke="black" stroke-width="0.0011"/>
<path d="M12.8223 36.791V5.41406C12.8223 2.85352 10.7363 0.767578 8.17578 0.767578C5.61523 0.767578 3.5293 2.85352 3.5293 5.41406V36.7852C1.4668 38.2734 0.212891 40.6816 0.212891 43.2422C0.212891 47.6367 3.78711 51.2051 8.17578 51.2051C12.5645 51.2051 16.1445 47.6426 16.1445 43.248C16.1445 40.6875 14.8906 38.2793 12.8223 36.791ZM8.17578 48.5566C5.24609 48.5566 2.86719 46.1777 2.86719 43.248C2.86719 41.3672 3.88672 39.6094 5.52148 38.6543C5.93164 38.4199 6.18359 37.9805 6.18359 37.5059V35.1152H6.8457C7.21484 35.1152 7.50781 34.8164 7.50781 34.4531C7.50781 34.084 7.20898 33.791 6.8457 33.791H6.18359V31.1367H6.8457C7.21484 31.1367 7.50781 30.8379 7.50781 30.4746C7.50781 30.1055 7.20898 29.8125 6.8457 29.8125H6.18359V27.1582H6.8457C7.21484 27.1582 7.50781 26.8594 7.50781 26.4961C7.50781 26.127 7.20898 25.834 6.8457 25.834H6.18359V23.1797H6.8457C7.21484 23.1797 7.50781 22.8809 7.50781 22.5176C7.50781 22.1484 7.20898 21.8555 6.8457 21.8555H6.18359V19.2012H6.8457C7.21484 19.2012 7.50781 18.9023 7.50781 18.5391C7.50781 18.1699 7.20898 17.877 6.8457 17.877H6.18359V15.2227H6.8457C7.21484 15.2227 7.50781 14.9238 7.50781 14.5605C7.50781 14.1914 7.20898 13.8984 6.8457 13.8984H6.18359V11.2441H6.8457C7.21484 11.2441 7.50781 10.9453 7.50781 10.582C7.50781 10.2129 7.20898 9.91992 6.8457 9.91992H6.18359V7.24219H6.8457C7.21484 7.24219 7.50781 6.94336 7.50781 6.58008C7.50781 6.21094 7.20898 5.91797 6.8457 5.91797H6.18359V5.41992C6.18359 4.32422 7.07422 3.42773 8.17578 3.42773C9.27148 3.42773 10.168 4.31836 10.168 5.41992V37.5117C10.168 37.9863 10.4199 38.4258 10.8301 38.6602C12.4707 39.6094 13.4844 41.3672 13.4844 43.2539C13.4902 46.1777 11.1055 48.5566 8.17578 48.5566Z" fill="#211F1E" stroke="black" stroke-width="0.0011"/>
</svg>
