<svg width="30" height="30" viewBox="0 0 47 47" fill="none" xmlns="http://www.w3.org/2000/svg">
<path d="M13.7236 33.2764L6.88477 40.1152" stroke="#FF4747" stroke-width="2.5"/>
<path d="M40.1152 6.88477L33.5518 13.4482" stroke="#FF4747" stroke-width="2.5"/>
<path d="M23.5 1.46875C26.4742 1.46875 29.3566 2.04707 32.0738 3.20371C34.6992 4.31445 37.0492 5.90254 39.0779 7.92207C41.0975 9.9416 42.6947 12.3008 43.7963 14.9262C44.9438 17.6434 45.5312 20.5258 45.5312 23.5C45.5312 26.4742 44.9529 29.3566 43.7963 32.0738C42.6855 34.6992 41.0975 37.0492 39.0779 39.0779C37.0584 41.0975 34.6992 42.6947 32.0738 43.7963C29.3566 44.9438 26.4742 45.5312 23.5 45.5312C20.5258 45.5312 17.6434 44.9529 14.9262 43.7963C12.3008 42.6855 9.95078 41.0975 7.92207 39.0779C5.90254 37.0584 4.30527 34.6992 3.20371 32.0738C2.04707 29.3566 1.46875 26.4742 1.46875 23.5C1.46875 20.5258 2.04707 17.6434 3.20371 14.9262C4.31445 12.3008 5.90254 9.95078 7.92207 7.92207C9.9416 5.90254 12.3008 4.30527 14.9262 3.20371C17.6434 2.04707 20.5258 1.46875 23.5 1.46875ZM23.5 0C10.5199 0 0 10.5199 0 23.5C0 36.4801 10.5199 47 23.5 47C36.4801 47 47 36.4801 47 23.5C47 10.5199 36.4801 0 23.5 0Z" fill="#FF4747"/>
<path d="M20.6635 22.38C21.3336 23.6743 21.2051 25.5194 19.3233 26.1987C17.4598 26.878 16.1563 25.5011 15.8442 24.1241C15.4035 22.1688 16.9916 19.7729 16.9916 19.7729C16.9916 19.7729 19.7547 20.6358 20.6635 22.38Z" stroke="#099B5E" stroke-opacity="0.81" stroke-width="2" stroke-miterlimit="10"/>
<path d="M27.4106 23.1786C26.4191 24.2435 24.6291 24.73 23.3623 23.1878C22.1047 21.6548 22.9584 19.9657 24.1518 19.2222C25.85 18.1481 28.6406 18.8458 28.6406 18.8458C28.6406 18.8458 28.7416 21.7466 27.4106 23.1786Z" stroke="#099B5E" stroke-opacity="0.81" stroke-width="2" stroke-miterlimit="10"/>
<path d="M25.033 30.8987C23.7203 31.5229 21.8752 31.3118 21.2694 29.4116C20.6635 27.5206 22.0864 26.2722 23.4725 26.0151C25.4461 25.6479 27.7778 27.3278 27.7778 27.3278C27.7778 27.3278 26.8139 30.0634 25.033 30.8987Z" stroke="#099B5E" stroke-opacity="0.81" stroke-width="2" stroke-miterlimit="10"/>
<path d="M23.5 37.4531C31.2061 37.4531 37.4531 31.2061 37.4531 23.5C37.4531 15.7939 31.2061 9.54688 23.5 9.54688C15.7939 9.54688 9.54688 15.7939 9.54688 23.5C9.54688 31.2061 15.7939 37.4531 23.5 37.4531Z" stroke="#FF4747" stroke-width="2.5" stroke-miterlimit="10"/>
</svg>
