<svg width="30" height="30" viewBox="0 0 24 60" fill="none" xmlns="http://www.w3.org/2000/svg">
<path d="M20.2809 7.00036C18.6525 3.34074 14.57 0.830248 12.2231 0.035742C12.0725 -0.0152966 11.9175 -0.00917752 11.7779 0.0382453L11.7771 0.035742C9.43013 0.830248 5.3476 3.34074 3.71923 7.00036C-0.465377 16.4043 0.600871 30.4123 0.648294 31.0039C0.677359 31.3653 0.979001 31.6452 1.34142 31.6452C1.34142 31.6452 8.77275 31.6452 8.77776 31.6452C9.23933 31.6452 9.63373 32.1688 9.9013 32.7133C9.55516 32.753 9.28522 33.0438 9.28522 33.4005V36.5328H8.35735C7.97324 36.5328 7.662 36.8442 7.662 37.2282V55.6762C7.662 58.0603 9.60147 59.9999 11.9854 59.9999C14.3693 59.9999 16.3088 58.0603 16.3088 55.6762V37.2282C16.3088 36.8442 15.9976 36.5328 15.6135 36.5328H14.6856V33.4005C14.6856 33.0533 14.4302 32.7679 14.0975 32.716C14.365 32.1705 14.7598 31.6437 15.2224 31.6437C15.2274 31.6437 22.6587 31.6437 22.6587 31.6437C23.0211 31.6437 23.3228 31.3651 23.3519 31.0038C23.3993 30.4122 24.4655 16.4043 20.2809 7.00036ZM11.9853 58.6093C10.3682 58.6093 9.05256 57.2936 9.05256 55.6763V40.2931H14.918V55.6763C14.918 57.2936 13.6024 58.6093 11.9853 58.6093ZM14.918 37.9235V38.9023H9.05256V37.9235H14.918ZM10.6758 36.5328V34.0959H13.2947V36.5328H10.6758ZM12.5891 32.7052H11.4108C11.0897 31.815 10.4618 30.7463 9.4891 30.3826C9.58575 28.5516 10.1475 25.1616 11.9999 24.509C13.8477 25.1608 14.4118 28.5516 14.5102 30.3827C13.5378 30.7465 12.9099 31.8151 12.5891 32.7052ZM22.0058 30.253H15.8926C15.7842 28.4704 15.2096 23.8723 12.1693 23.1087L12.1684 23.1117C12.0606 23.0845 11.9458 23.0798 11.8305 23.1088C8.79027 23.8724 8.21578 28.4705 8.10744 30.2531H1.99407C1.83706 27.388 1.44057 15.542 4.98978 7.56582C6.37533 4.45176 9.92453 2.20607 12 1.43284C14.0755 2.2062 17.6247 4.45176 19.0102 7.56582C22.5571 15.5365 22.1624 27.3867 22.0058 30.253Z" fill="#025F38" stroke="#025F38" stroke-width="0.00089"/>
</svg>
