<svg width="30" height="30" viewBox="0 0 50 50" fill="none" xmlns="http://www.w3.org/2000/svg">
<path d="M25 49.9999C24.6831 49.9999 24.366 49.9081 24.0907 49.7245C17.4746 45.3135 13.5246 37.9331 13.5246 29.9819V27.8688C13.5246 26.9633 14.2584 26.2295 15.164 26.2295H34.8361C35.7417 26.2295 36.4755 26.9633 36.4755 27.8688V29.982C36.4755 37.9333 32.5254 45.3135 25.9094 49.7246C25.634 49.9081 25.3169 49.9999 25 49.9999Z" fill="#C5DCFD"/>
<path d="M34.836 26.2295H25V50C25.3169 50 25.634 49.9082 25.9093 49.7246C32.5254 45.3136 36.4754 37.9332 36.4754 29.982V27.8689C36.4754 26.9633 35.7416 26.2295 34.836 26.2295Z" fill="#B1C6E4"/>
<path d="M25 37.1586C24.0944 37.1586 23.3607 36.4248 23.3607 35.5192V22.4045C23.3607 21.4989 24.0944 20.7651 25 20.7651C25.9056 20.7651 26.6394 21.4989 26.6394 22.4045V35.5192C26.6394 36.4248 25.9056 37.1586 25 37.1586Z" fill="#B1C6E4"/>
<path d="M26.6394 35.5192V22.4045C26.6394 21.4989 25.9056 20.7651 25 20.7651V37.1586C25.9056 37.1586 26.6394 36.4248 26.6394 35.5192Z" fill="#9DB0CA"/>
<path d="M28.2787 24.0437H21.7213C20.8157 24.0437 20.0819 23.31 20.0819 22.4044V4.91807C20.0819 2.20615 22.2881 0 25 0C27.7119 0 29.918 2.20615 29.918 4.91807V22.4044C29.918 23.31 29.1843 24.0437 28.2787 24.0437Z" fill="#6E6057"/>
<path d="M28.2787 24.0437C29.1843 24.0437 29.9181 23.31 29.9181 22.4044V4.91807C29.9181 2.20615 27.7119 0 25 0V24.0437H28.2787Z" fill="#615349"/>
</svg>
