<svg width="30" height="30" viewBox="0 0 40 38" fill="none" xmlns="http://www.w3.org/2000/svg">
<path opacity="0.4" d="M32.9805 25.8203C31.8989 19.3486 25.6839 14.0869 19.1205 14.0869C11.9888 14.0869 5.71882 19.862 5.11382 26.9753C4.87549 29.7253 5.75549 32.3286 7.57049 34.2903C9.36715 36.252 11.8972 37.3336 14.6472 37.3336H23.2272C26.3255 37.3336 29.0389 36.1236 30.8905 33.942C32.7422 31.7603 33.4755 28.8636 32.9805 25.8203Z" fill="#292D32" stroke="black" stroke-width="0.001"/>
<path d="M16.846 11.4101C19.8127 11.4101 22.2176 9.0051 22.2176 6.03841C22.2176 3.07173 19.8127 0.666748 16.846 0.666748C13.8793 0.666748 11.4743 3.07173 11.4743 6.03841C11.4743 9.0051 13.8793 11.4101 16.846 11.4101Z" fill="#292D32" stroke="black" stroke-width="0.001"/>
<path d="M29.0566 13.5548C31.5272 13.5548 33.53 11.5521 33.53 9.08149C33.53 6.61094 31.5272 4.60815 29.0566 4.60815C26.586 4.60815 24.5833 6.61094 24.5833 9.08149C24.5833 11.5521 26.586 13.5548 29.0566 13.5548Z" fill="#292D32" stroke="black" stroke-width="0.001"/>
<path d="M35.6742 20.7051C37.6487 20.7051 39.2492 19.1046 39.2492 17.1301C39.2492 15.1557 37.6487 13.5552 35.6742 13.5552C33.6999 13.5552 32.0992 15.1557 32.0992 17.1301C32.0992 19.1046 33.6999 20.7051 35.6742 20.7051Z" fill="#292D32" stroke="black" stroke-width="0.001"/>
<path d="M5.22333 17.1303C7.69388 17.1303 9.69667 15.1275 9.69667 12.6569C9.69667 10.1864 7.69388 8.18359 5.22333 8.18359C2.75279 8.18359 0.75 10.1864 0.75 12.6569C0.75 15.1275 2.75279 17.1303 5.22333 17.1303Z" fill="#292D32" stroke="black" stroke-width="0.001"/>
</svg>
